<?xml version="1.0" encoding="UTF-8" standalone="no"?>
<!-- Created with Inkscape (http://www.inkscape.org/) -->

<svg
   version="1.1"
   id="svg2"
   width="3333.3333"
   height="3333.3333"
   viewBox="0 0 3333.3333 3333.3333"
   sodipodi:docname="OrgUVC-L_Tech-10_Single-09.eps"
   xmlns:inkscape="http://www.inkscape.org/namespaces/inkscape"
   xmlns:sodipodi="http://sodipodi.sourceforge.net/DTD/sodipodi-0.dtd"
   xmlns="http://www.w3.org/2000/svg"
   xmlns:svg="http://www.w3.org/2000/svg">
  <defs
     id="defs6">
    <clipPath
       clipPathUnits="userSpaceOnUse"
       id="clipPath264">
      <path
         d="m 6269.62,6236.3 c 0,0 -710.14,-1547.8 -1082.73,-2188.9 0,0 -73.99,-403.3 0,-530.2 l 63.07,-28 -294.33,8.7 c 0,0 -26.14,542.6 -5.72,572.9 20.41,30.4 61.25,28.4 61.25,28.4 0,0 126.21,999.8 491.71,1213.2 l 354.21,1220 z"
         id="path262" />
    </clipPath>
    <linearGradient
       x1="0"
       y1="0"
       x2="1"
       y2="0"
       gradientUnits="userSpaceOnUse"
       gradientTransform="matrix(-1327.52,0,0,-1327.52,6269.63,5010.8)"
       spreadMethod="pad"
       id="linearGradient270">
      <stop
         style="stop-opacity:1;stop-color:#979aa0"
         offset="0"
         id="stop266" />
      <stop
         style="stop-opacity:1;stop-color:#888b8f"
         offset="1"
         id="stop268" />
    </linearGradient>
    <clipPath
       clipPathUnits="userSpaceOnUse"
       id="clipPath284">
      <path
         d="m 7075.15,6335 c 0,0 -458.91,-2220 -588.72,-2653.1 l 307.1,-192.7 c 0,0 -153.9,26.2 -268.02,34.4 -114.12,8.3 -219.1,139.3 -219.1,139.3 l 36.79,58.7 c 0,0 115.09,2207.9 87.07,2458.6 z"
         id="path282" />
    </clipPath>
    <linearGradient
       x1="0"
       y1="0"
       x2="1"
       y2="0"
       gradientUnits="userSpaceOnUse"
       gradientTransform="matrix(-768.736,0,0,-768.736,7075.15,4912.1)"
       spreadMethod="pad"
       id="linearGradient290">
      <stop
         style="stop-opacity:1;stop-color:#979aa0"
         offset="0"
         id="stop286" />
      <stop
         style="stop-opacity:1;stop-color:#888b8f"
         offset="1"
         id="stop288" />
    </linearGradient>
    <clipPath
       clipPathUnits="userSpaceOnUse"
       id="clipPath304">
      <path
         d="m 6842.08,9751 c 2.61,3.4 -155.48,477.3 -155.48,477.3 l -226.45,-20.6 -88.47,-537.5 c 0,0 354.9,-71.7 470.4,80.8 z"
         id="path302" />
    </clipPath>
    <linearGradient
       x1="0"
       y1="0"
       x2="1"
       y2="0"
       gradientUnits="userSpaceOnUse"
       gradientTransform="matrix(-647.353,1401.66,1401.66,647.353,6856.54,9240.3)"
       spreadMethod="pad"
       id="linearGradient310">
      <stop
         style="stop-opacity:1;stop-color:#979aa0"
         offset="0"
         id="stop306" />
      <stop
         style="stop-opacity:1;stop-color:#888b8f"
         offset="1"
         id="stop308" />
    </linearGradient>
    <clipPath
       clipPathUnits="userSpaceOnUse"
       id="clipPath320">
      <path
         d="m 6514.36,10975.5 c 15.1,-9.4 483.9,-203.1 383.17,-689.8 -5.95,-28.8 -25.14,-53.1 -51.96,-65.1 -68.79,-30.7 -216.9,-83.2 -394.04,-65.2 -245.59,24.9 -406.51,453.5 -399.67,578.2 6.85,124.7 312.84,335.1 462.5,241.9 z"
         id="path318" />
    </clipPath>
    <linearGradient
       x1="0"
       y1="0"
       x2="1"
       y2="0"
       gradientUnits="userSpaceOnUse"
       gradientTransform="matrix(-591.061,534.77,534.77,591.061,6369.24,10658.9)"
       spreadMethod="pad"
       id="linearGradient326">
      <stop
         style="stop-opacity:1;stop-color:#979aa0"
         offset="0"
         id="stop322" />
      <stop
         style="stop-opacity:1;stop-color:#888b8f"
         offset="1"
         id="stop324" />
    </linearGradient>
    <clipPath
       clipPathUnits="userSpaceOnUse"
       id="clipPath336">
      <path
         d="m 7301.34,9584.9 c -24.41,63.5 20.54,131.8 88.47,134.9 172.79,8 473.15,62.5 727.41,316.7 164.91,164.9 208.61,764.9 208.61,764.9 0,0 34.77,278.2 104.3,278.2 69.54,0 0,-173.9 0,-173.9 0,0 173.84,-104.3 347.69,34.8 173.84,139.1 -34.77,-208.6 -208.61,-278.1 0,0 66.82,-1369.8 -1076.75,-1391.2 -41.89,-0.7 -80,24.8 -95.04,63.9 z"
         id="path334" />
    </clipPath>
    <linearGradient
       x1="0"
       y1="0"
       x2="1"
       y2="0"
       gradientUnits="userSpaceOnUse"
       gradientTransform="matrix(1823.85,-1266.56,-1266.56,-1823.85,9110.25,9454.2)"
       spreadMethod="pad"
       id="linearGradient342">
      <stop
         style="stop-opacity:1;stop-color:#979aa0"
         offset="0"
         id="stop338" />
      <stop
         style="stop-opacity:1;stop-color:#888b8f"
         offset="1"
         id="stop340" />
    </linearGradient>
  </defs>
  <sodipodi:namedview
     id="namedview4"
     pagecolor="#ffffff"
     bordercolor="#000000"
     borderopacity="0.25"
     inkscape:showpageshadow="2"
     inkscape:pageopacity="0.0"
     inkscape:pagecheckerboard="0"
     inkscape:deskcolor="#d1d1d1" />
  <g
     id="g8"
     inkscape:groupmode="layer"
     inkscape:label="ink_ext_XXXXXX"
     transform="matrix(1.3333333,0,0,-1.3333333,0,3333.3333)">
    <g
       id="g10"
       transform="scale(0.1)">
      <path
         d="M 0,0 H 25000 V 25000 H 0 Z"
         style="fill:#ffffff;fill-opacity:1;fill-rule:nonzero;stroke:none"
         id="path12" />
      <path
         d="m 19554.5,5912.3 c -377,-392 -733.7,-644.7 -1015.5,-844.4 C 15226.1,2720.4 11306.1,3404.7 10473,3571.8 9242.79,3818.5 6864.76,4295.5 5145.49,6292.2 2544.38,9313.1 2949.41,14072.3 4967.01,17214 c 369.05,574.7 2318.48,3764.2 6280.69,4275.7 2397.9,309.5 5193,-314.8 7217.2,-1989.6 4249,-3515.5 3946.5,-10617.5 1089.6,-13587.8"
         style="fill:#efeff4;fill-opacity:1;fill-rule:nonzero;stroke:none"
         id="path14" />
      <path
         d="M 3341.77,15474.4 V 6513.5 c 0,-737.1 587.42,-1339.9 1324.32,-1358.9 3272.94,-84.4 12826.21,-289.1 15941.81,-243.1 535.5,7.8 969.3,436.4 984.7,971.7 60.1,2081.7 157.7,7087.6 -203.4,9411.6 -76,489.4 -489.2,855.4 -984.2,871.2 -2742.3,87.7 -12983.12,366.3 -16097.28,296.4 -537.09,-12.1 -965.95,-450.8 -965.95,-988"
         style="fill:#333435;fill-opacity:1;fill-rule:nonzero;stroke:none"
         id="path16" />
      <path
         d="M 3904.04,15518 V 7004.6 c 0,-430.4 345.49,-781.1 775.83,-787.5 L 20159.7,6002.4 c 426.6,-6.4 776.3,336.9 777.9,763.6 l 29.1,8437.3 c 1.1,305.1 -241.9,555.1 -546.9,562.5 l -15893.59,359.4 c -341.14,8.3 -622.17,-266 -622.17,-607.2"
         style="fill:#f3d33f;fill-opacity:1;fill-rule:nonzero;stroke:none"
         id="path18" />
      <path
         d="m 4255.87,6463.7 h 480.18 v 2559.5 h -480.18 z"
         style="fill:#f9eaa5;fill-opacity:1;fill-rule:nonzero;stroke:none"
         id="path20" />
      <path
         d="m 5058.21,6463.7 h 480.191 V 8143.5 H 5058.21 Z"
         style="fill:#f9eaa5;fill-opacity:1;fill-rule:nonzero;stroke:none"
         id="path22" />
      <path
         d="m 5860.57,6463.7 h 480.18 v 3853.9 h -480.18 z"
         style="fill:#f9eaa5;fill-opacity:1;fill-rule:nonzero;stroke:none"
         id="path24" />
      <path
         d="m 6662.91,6463.7 h 480.191 v 925.902 H 6662.91 Z"
         style="fill:#f9eaa5;fill-opacity:1;fill-rule:nonzero;stroke:none"
         id="path26" />
      <path
         d="m 7465.26,6463.7 h 480.188 V 9802.3 H 7465.26 Z"
         style="fill:#f9eaa5;fill-opacity:1;fill-rule:nonzero;stroke:none"
         id="path28" />
      <path
         d="m 8267.61,6463.7 h 480.191 V 9224.3 H 8267.61 Z"
         style="fill:#f9eaa5;fill-opacity:1;fill-rule:nonzero;stroke:none"
         id="path30" />
      <path
         d="m 9069.96,6463.7 h 480.191 V 8595.9 H 9069.96 Z"
         style="fill:#f9eaa5;fill-opacity:1;fill-rule:nonzero;stroke:none"
         id="path32" />
      <path
         d="m 9872.31,6463.7 h 480.188 v 4633 H 9872.31 Z"
         style="fill:#f9eaa5;fill-opacity:1;fill-rule:nonzero;stroke:none"
         id="path34" />
      <path
         d="m 10674.7,6463.7 h 480.102 v 4142.9 H 10674.7 Z"
         style="fill:#f9eaa5;fill-opacity:1;fill-rule:nonzero;stroke:none"
         id="path36" />
      <path
         d="m 11477,6463.7 h 480.199 V 9865.2 H 11477 Z"
         style="fill:#f9eaa5;fill-opacity:1;fill-rule:nonzero;stroke:none"
         id="path38" />
      <path
         d="m 12279.4,6463.7 h 480.102 v 839.902 H 12279.4 Z"
         style="fill:#f9eaa5;fill-opacity:1;fill-rule:nonzero;stroke:none"
         id="path40" />
      <path
         d="m 13081.7,6463.7 h 480.199 V 8935.2 H 13081.7 Z"
         style="fill:#f9eaa5;fill-opacity:1;fill-rule:nonzero;stroke:none"
         id="path42" />
      <path
         d="M 13290.8,11225.3 H 4716.94 c -219.77,0 -397.92,178.2 -397.92,397.9 v 3574.5 c 0,220.3 178.73,398 397.73,398 3.31,0 6.6,-0.1 9.93,-0.2 l 2998.12,-73.4 v -2302.4 c 0,-336.3 272.62,-608.9 608.9,-608.9 h 5355.1 v -987.6 c 0,-219.7 -178.2,-397.9 -398,-397.9"
         style="fill:#faedb0;fill-opacity:1;fill-rule:nonzero;stroke:none"
         id="path44" />
      <path
         d="m 3391.64,17642.7 c -26.61,0 -49.96,19.4 -54.08,46.5 -9.31,61.3 -16.06,123.8 -20.07,185.8 -1.96,30.2 20.93,56.2 51.12,58.2 1.21,0.1 2.41,0.1 3.6,0.1 28.62,0 52.71,-22.3 54.59,-51.2 3.8,-58.9 10.22,-118.3 19.07,-176.4 1.21,-8 0.64,-15.8 -1.42,-23.1 -5.67,-20.1 -22.58,-36 -44.51,-39.3 -2.79,-0.4 -5.56,-0.6 -8.3,-0.6 m -17.86,476.8 c -1.39,0 -2.78,0.1 -4.18,0.2 -30.16,2.3 -52.78,28.6 -50.52,58.7 4.65,61.8 12.03,124.2 21.9,185.5 4.21,27 27.58,46.1 54,46.1 2.9,0 5.83,-0.3 8.79,-0.7 29.86,-4.9 50.16,-33 45.36,-62.8 -9.38,-58.3 -16.4,-117.6 -20.81,-176.3 -0.27,-3.7 -0.94,-7.4 -1.93,-10.8 -6.57,-23.3 -27.95,-39.9 -52.61,-39.9 m 88.22,469.1 c -5.3,0 -10.7,0.7 -16.04,2.4 -28.54,8.7 -44.78,38.6 -36.69,67.2 l 0.34,1.1 c 18.13,59.4 39.05,118.7 62.13,176.1 8.6,21.4 29.15,34.4 50.86,34.4 6.8,0 13.71,-1.3 20.4,-4 26.22,-10.5 39.82,-39 32.29,-65.6 -0.52,-1.9 -1.16,-3.8 -1.88,-5.6 -21.94,-54.6 -41.82,-110.9 -59.06,-167.3 -7.2,-23.6 -28.89,-38.7 -52.35,-38.7 m 189.6,437.7 c -9.26,0 -18.64,2.3 -27.25,7.3 -26.23,15.1 -35.13,48.5 -20.17,74.8 30.9,53.7 64.52,106.8 99.93,157.7 10.64,15.3 27.69,23.5 45.01,23.5 10.8,0 21.7,-3.2 31.23,-9.8 19.7,-13.7 27.63,-38.1 21.44,-59.9 -1.6,-5.7 -4.2,-11.2 -7.76,-16.4 -33.62,-48.3 -65.54,-98.7 -94.88,-149.7 -10.14,-17.7 -28.59,-27.5 -47.55,-27.5 m 282.66,384 c -13.31,0 -26.66,4.8 -37.19,14.6 -22.2,20.5 -23.54,55.2 -2.98,77.4 42.14,45.5 86.75,89.7 132.58,131.5 10.5,9.5 23.71,14.3 36.87,14.3 14.88,0 29.7,-6.1 40.51,-17.9 13.23,-14.5 17.18,-34.3 12.2,-51.9 -2.69,-9.5 -7.97,-18.4 -15.81,-25.5 -43.55,-39.7 -85.93,-81.7 -125.97,-124.9 -10.79,-11.7 -25.48,-17.6 -40.21,-17.6 m 361.2,311.8 c -17.47,0 -34.64,8.3 -45.26,23.8 -17.1,25 -10.71,59 14.27,76.1 51.24,35.1 104.54,68.4 158.38,98.9 8.53,4.9 17.81,7.2 26.97,7.2 19.07,0 37.6,-10 47.69,-27.8 7.52,-13.3 8.91,-28.3 5.06,-41.9 -3.79,-13.4 -12.64,-25.4 -25.69,-32.8 -51.16,-29 -101.83,-60.6 -150.52,-94 -9.47,-6.4 -20.24,-9.5 -30.9,-9.5 m 1999.33,220.6 c -6.77,0 -13.64,1.2 -20.31,3.9 -54.58,21.8 -110.91,41.6 -167.45,58.7 -28.6,8.7 -44.89,38.7 -36.79,67.3 l 0.29,1 c 7.17,23.7 28.9,38.9 52.39,38.9 5.28,0 10.64,-0.8 15.94,-2.4 59.5,-18 118.81,-38.8 176.27,-61.8 26.27,-10.5 39.93,-39.1 32.39,-65.7 -0.51,-1.8 -1.12,-3.7 -1.85,-5.5 -8.56,-21.4 -29.14,-34.4 -50.88,-34.4 m -1578.14,3.6 c -21.8,0 -42.41,13.1 -50.94,34.5 -11.12,28.2 2.63,60 30.72,71.1 57.65,22.9 117.01,43.6 176.44,61.4 5.25,1.6 10.56,2.4 15.78,2.4 23.55,0 45.31,-15.3 52.43,-39 3.12,-10.4 3.02,-21 0.28,-30.7 -4.93,-17.4 -18.35,-32 -36.94,-37.6 -56.47,-16.9 -112.85,-36.6 -167.6,-58.3 -6.62,-2.6 -13.46,-3.8 -20.17,-3.8 m 1118.16,123 c -2.86,0 -5.76,0.2 -8.68,0.7 -58.31,9.3 -117.58,16.1 -176.2,20.4 -30.15,2.2 -52.84,28.5 -50.64,58.6 2.22,28.9 26.16,50.8 54.58,50.8 1.34,0 2.7,0 4.06,-0.1 61.67,-4.5 124.06,-11.8 185.43,-21.5 29.86,-4.8 50.22,-32.9 45.47,-62.8 -0.36,-2.1 -0.83,-4.3 -1.4,-6.3 -6.67,-23.6 -28.3,-39.8 -52.62,-39.8 m -657.64,2.1 c -26.57,0 -49.91,19.3 -54.08,46.4 -4.55,29.9 15.92,57.9 45.82,62.5 61.32,9.4 123.79,16.3 185.65,20.4 1.24,0.1 2.47,0.1 3.69,0.1 28.6,0 52.67,-22.2 54.61,-51.1 0.43,-6.5 -0.28,-12.7 -1.94,-18.6 -6.13,-21.7 -25.33,-38.1 -49.08,-39.7 -58.76,-3.9 -118.06,-10.5 -176.29,-19.4 -2.81,-0.4 -5.62,-0.6 -8.38,-0.6"
         style="fill:#eeeff2;fill-opacity:1;fill-rule:nonzero;stroke:none"
         id="path46" />
      <path
         d="m 3483.68,17269.2 c -22.72,0 -43.96,14.2 -51.78,36.9 -9.68,28.1 -18.94,56.9 -27.52,85.5 -8.74,29 7.74,59.5 36.73,68.2 5.24,1.6 10.53,2.3 15.74,2.3 23.56,0 45.33,-15.3 52.44,-39 8.18,-27.3 16.97,-54.6 26.18,-81.3 3.79,-11 3.87,-22.3 0.93,-32.7 -4.72,-16.7 -17.24,-30.8 -34.88,-36.9 -5.9,-2.1 -11.92,-3 -17.84,-3"
         style="fill:#eeeff2;fill-opacity:1;fill-rule:nonzero;stroke:none"
         id="path48" />
      <path
         d="m 4639.12,16122.6 -112.91,2.6 c -5.04,0.1 -10.07,0.2 -15.09,0.2 -14.58,0 -29.06,-0.5 -43.39,-1.6 0.32,7.8 2.29,15.6 6.08,22.9 9.71,18.9 28.87,29.7 48.73,29.7 8.44,0 17.02,-2 25.04,-6.1 25.25,-13 51.04,-25.6 76.66,-37.5 5.65,-2.6 10.63,-6.1 14.88,-10.2"
         style="fill:#5f6165;fill-opacity:1;fill-rule:nonzero;stroke:none"
         id="path50" />
      <path
         d="m 4601.14,16028.3 c -7.72,0 -15.56,1.7 -23.02,5.1 -26.97,12.5 -54.13,25.9 -80.72,39.5 -19.56,10.1 -30.51,30.3 -29.67,50.9 14.33,1.1 28.81,1.6 43.39,1.6 5.02,0 10.05,-0.1 15.09,-0.2 l 112.91,-2.6 c 14.39,-13.8 20.33,-34.7 14.78,-54.3 -0.78,-2.8 -1.78,-5.5 -3.03,-8.2 -9.28,-20 -29.07,-31.8 -49.73,-31.8"
         style="fill:#e5d06c;fill-opacity:1;fill-rule:nonzero;stroke:none"
         id="path52" />
      <path
         d="m 5503.05,15829.3 c -57.59,0 -115.83,2.3 -173.28,6.9 -30.16,2.4 -52.67,28.8 -50.25,59 2.29,28.6 26.26,50.4 54.54,50.4 1.46,0 2.93,-0.1 4.41,-0.2 54.68,-4.3 110.09,-6.5 164.89,-6.5 3.16,0 6.32,0 9.49,0 0.09,0 0.18,0 0.27,0 30.11,0 54.61,-24.4 54.74,-54.5 0.03,-5.3 -0.68,-10.4 -2.04,-15.2 -6.49,-22.9 -27.5,-39.7 -52.47,-39.9 -3.43,0 -6.87,0 -10.3,0 m 300.4,21.4 c -26.8,0 -50.24,19.7 -54.15,47 -4.28,29.9 16.52,57.7 46.46,62 57.34,8.2 115.06,19 171.61,32.1 4.14,0.9 8.29,1.4 12.37,1.4 24.93,0 47.46,-17.1 53.31,-42.5 2.15,-9.3 1.79,-18.6 -0.65,-27.1 -5.26,-18.7 -20.22,-33.9 -40.39,-38.6 -59.53,-13.7 -120.33,-25.1 -180.72,-33.7 -2.63,-0.4 -5.25,-0.6 -7.84,-0.6 m -757.09,28.1 c -3.87,0 -7.79,0.4 -11.73,1.2 -43.87,9.6 -88,20.7 -131.13,32.9 -15.63,4.4 -31.14,8.9 -46.59,13.7 -28.91,8.8 -45.84,39.3 -36.3,68.4 7.22,23.6 28.91,38.7 52.35,38.7 5.32,0 10.72,-0.7 16.07,-2.4 14.67,-4.5 29.44,-8.9 44.29,-13 41.01,-11.7 82.93,-22.1 124.65,-31.2 29.56,-6.5 48.29,-35.7 41.84,-65.2 -0.25,-1.1 -0.51,-2.2 -0.82,-3.3 -6.74,-23.8 -28.54,-39.8 -52.63,-39.8"
         style="fill:#e5d06c;fill-opacity:1;fill-rule:nonzero;stroke:none"
         id="path54" />
      <path
         d="m 6476.06,16081.1 -207.95,4.7 c 44.21,17.6 88.14,36.9 130.99,57.4 7.64,3.7 15.71,5.5 23.65,5.5 20.42,0 40,-11.5 49.42,-31.1 5.67,-11.9 6.73,-24.7 3.89,-36.5"
         style="fill:#5f6165;fill-opacity:1;fill-rule:nonzero;stroke:none"
         id="path56" />
      <path
         d="m 6258.17,15968.4 c -22.08,0 -42.87,13.4 -51.2,35.3 -10.78,28.2 3.43,59.9 31.69,70.6 9.83,3.8 19.65,7.6 29.45,11.5 l 207.95,-4.7 c -0.17,-0.7 -0.36,-1.4 -0.56,-2.1 -4.12,-14.6 -14.27,-27.4 -29.01,-34.5 -55.08,-26.4 -111.9,-50.8 -168.84,-72.5 -6.41,-2.5 -13,-3.6 -19.48,-3.6"
         style="fill:#e5d06c;fill-opacity:1;fill-rule:nonzero;stroke:none"
         id="path58" />
      <path
         d="m 6676.06,16182.6 c -17.79,0 -35.23,8.6 -45.76,24.6 -16.68,25.2 -9.73,59.2 15.55,75.8 48.34,32 95.97,66.3 141.57,102.2 10.04,7.9 21.98,11.7 33.84,11.7 16.21,0 32.27,-7.1 43.08,-20.9 11.26,-14.3 14.25,-32.5 9.64,-48.8 -3.04,-10.7 -9.38,-20.6 -18.82,-28.1 -47.96,-37.7 -98.09,-73.9 -148.97,-107.5 -9.3,-6.1 -19.77,-9 -30.13,-9"
         style="fill:#5f6165;fill-opacity:1;fill-rule:nonzero;stroke:none"
         id="path60" />
      <path
         d="m 7037.08,16482.5 c -13.69,0 -27.39,5.1 -38.02,15.3 -21.78,21 -22.38,55.7 -1.37,77.5 40.32,41.7 79.29,85.6 115.81,130.5 10.83,13.3 26.6,20.2 42.5,20.2 12.16,0 24.4,-4.1 34.57,-12.3 17.47,-14.3 23.88,-37.1 18.11,-57.4 -1.97,-7 -5.38,-13.7 -10.25,-19.7 -38.46,-47.2 -79.49,-93.4 -121.94,-137.4 -10.75,-11.1 -25.07,-16.7 -39.41,-16.7 m 286.62,371.4 c -9.71,0 -19.53,2.5 -28.42,7.9 -25.84,15.8 -34.01,49.4 -18.34,75.3 30.18,49.6 58.52,101 84.29,152.8 9.59,19.2 28.96,30.4 49.1,30.4 8.19,0 16.52,-1.9 24.36,-5.8 23.95,-11.9 35.34,-39 28.31,-63.8 -0.92,-3.3 -2.14,-6.5 -3.68,-9.6 -27.16,-54.6 -57.01,-108.7 -88.77,-160.9 -10.31,-17 -28.36,-26.3 -46.85,-26.3 m 198.08,425.6 c -5.8,0 -11.7,0.9 -17.5,2.9 -28.66,9.6 -44.03,40.6 -34.42,69.3 18.37,54.6 34.69,110.8 48.75,167.7 6.05,24.9 28.53,41.7 53.19,41.7 4.33,0 8.73,-0.5 13.12,-1.6 29.37,-7.3 47.3,-36.9 40.06,-66.3 -6.09,-24.7 -12.56,-49.1 -19.42,-73.4 -9.79,-34.6 -20.5,-69.2 -31.88,-103 -7.69,-22.9 -29.03,-37.3 -51.9,-37.3 m 100.52,458.7 c -1.94,0 -3.9,0.1 -5.88,0.3 -30.06,3.2 -51.84,30.2 -48.62,60.3 6.15,57.7 9.95,116.4 11.25,174.2 0.57,29.8 25.05,53.6 54.74,53.6 0.42,0 0.83,0 1.25,0 30.22,-0.7 54.19,-25.8 53.51,-56 -1.37,-60.9 -5.35,-122.7 -11.84,-183.4 -0.34,-3.2 -0.94,-6.3 -1.78,-9.2 -6.61,-23.4 -28.08,-39.8 -52.63,-39.8 m -2.02,469.6 c -27.44,0 -51.13,20.6 -54.34,48.5 -6.66,57.6 -15.86,115.6 -27.35,172.4 -6,29.7 13.16,58.5 42.83,64.5 3.66,0.7 7.32,1.1 10.92,1.1 25.52,0 48.36,-17.9 53.61,-43.9 12.1,-59.8 21.79,-120.9 28.8,-181.5 0.84,-7.4 0.22,-14.5 -1.67,-21.2 -5.87,-20.8 -23.74,-36.9 -46.45,-39.5 -2.13,-0.3 -4.26,-0.4 -6.35,-0.4"
         style="fill:#e3e4ea;fill-opacity:1;fill-rule:nonzero;stroke:none"
         id="path62" />
      <path
         d="m 7514.66,18666.7 c -22.63,0 -43.8,14.1 -51.69,36.7 -9.31,26.5 -19.36,53.4 -29.86,79.9 -11.19,28.1 2.57,59.9 30.68,71.1 6.63,2.7 13.47,3.9 20.2,3.9 21.78,0 42.39,-13.1 50.92,-34.6 11.07,-27.8 21.65,-56.1 31.45,-84.1 3.86,-11 3.98,-22.5 1.01,-33 -4.69,-16.5 -17.1,-30.7 -34.61,-36.8 -5.99,-2.1 -12.1,-3.1 -18.1,-3.1"
         style="fill:#e3e4ea;fill-opacity:1;fill-rule:nonzero;stroke:none"
         id="path64" />
      <path
         d="m 6721.65,19114.6 c -6.27,9 -17.51,13 -28.02,10 l -299.55,-85.7 c -108.43,97 -233.1,177.4 -370.73,236.4 l -48.78,307.5 c -1.72,10.8 -10.09,19.3 -20.84,21.2 l -368.03,65 c -10.76,1.9 -21.54,-3.2 -26.83,-12.8 L 5407.73,19384 c -149.5,-8.3 -294.19,-41.2 -429.28,-95.2 l -252.11,183 c -8.84,6.4 -20.77,6.5 -29.72,0.3 l -306.18,-214.3 c -8.94,-6.3 -12.94,-17.5 -9.93,-28 l 85.69,-299.6 c -97.04,-108.4 -177.49,-233.1 -236.46,-370.7 l -307.52,-48.8 c -10.79,-1.7 -19.3,-10.1 -21.2,-20.8 l -64.98,-368.1 c -1.89,-10.7 3.25,-21.5 12.79,-26.8 l 272.24,-151.1 c 8.28,-149.5 41.18,-294.2 95.23,-429.3 l -183.07,-252.1 c -6.41,-8.9 -6.53,-20.8 -0.26,-29.7 l 214.3,-306.2 c 6.27,-9 17.52,-12.9 28.01,-9.9 l 299.56,85.6 c 108.42,-97 233.09,-177.4 370.73,-236.4 l 48.79,-307.5 c 1.7,-10.8 10.07,-19.3 20.83,-21.2 l 368.03,-65 c 10.76,-1.9 21.54,3.2 26.83,12.8 l 151.14,272.2 c 149.5,8.3 294.19,41.2 429.28,95.2 l 252.11,-183 c 8.83,-6.5 20.76,-6.5 29.72,-0.3 l 306.18,214.3 c 8.95,6.3 12.93,17.5 9.93,28 l -85.69,299.6 c 97.04,108.4 177.49,233.1 236.46,370.7 l 307.53,48.8 c 10.78,1.7 19.29,10.1 21.2,20.8 l 64.96,368.1 c 1.9,10.7 -3.24,21.5 -12.79,26.8 l -272.23,151.1 c -8.28,149.5 -41.18,294.2 -95.23,429.3 l 183.07,252.1 c 6.42,8.9 6.52,20.8 0.26,29.7 l -214.3,306.2"
         style="fill:#c6c9d3;fill-opacity:1;fill-rule:nonzero;stroke:none"
         id="path66" />
      <path
         d="m 5215.24,17918.2 c 27.35,-71.9 81.06,-128.8 151.25,-160.4 144.88,-65 315.69,-0.1 380.73,144.8 65.11,144.9 0.09,315.7 -144.79,380.8 -144.88,65 -315.69,0 -380.73,-144.8 -5.89,-13.2 -10.75,-26.6 -14.61,-40.2 -16.71,-59.1 -14.07,-121.7 8.15,-180.2 z m 611.92,-51.5 c -84.85,-188.9 -307.59,-273.6 -496.57,-188.8 -91.55,41.1 -161.61,115.4 -197.26,209.2 -35.67,93.7 -32.7,195.8 8.43,287.4 84.85,188.9 307.59,273.6 496.57,188.8 171.92,-77.2 257.54,-268.5 207.7,-444.7 -4.94,-17.5 -11.23,-34.8 -18.87,-51.9"
         style="fill:#efeff4;fill-opacity:1;fill-rule:nonzero;stroke:none"
         id="path68" />
      <path
         d="m 6366.03,17763.5 c 8.56,30.3 15.65,61.1 21.19,92.5 1.75,9.9 3.34,19.8 4.77,29.7 7.03,49 10.15,98.5 9.32,147.7 l -0.03,2 c -0.04,1.9 -0.08,3.8 -0.14,5.7 -0.09,3.7 -0.22,7.4 -0.35,11.1 -0.37,9.7 -7.02,17.7 -15.91,20.3 -2.16,0.6 -4.46,0.9 -6.81,0.8 -12.1,-0.5 -21.49,-10.7 -21.06,-22.7 2.34,-62.3 -2.01,-125.2 -12.94,-187 -54.15,-307 -262.39,-548.9 -531.08,-660.2 -149.44,-61.9 -317.58,-83.4 -488.36,-53.3 -29.94,5.3 -59.41,12.1 -88.27,20.2 -194.25,55 -362.29,174.1 -479.61,341.8 -134.77,192.5 -186.49,426 -145.64,657.4 84.43,478 541.68,797.9 1019.44,713.6 29.45,-5.2 58.54,-11.9 87.14,-20 123.91,-35.1 238.77,-96.9 336.11,-181.4 2.52,-2.1 5.38,-3.6 8.39,-4.5 7.9,-2.2 16.77,0.1 22.51,6.7 7.91,9.2 6.99,23 -2.2,30.9 -102.19,88.7 -222.78,153.6 -352.87,190.5 -30.01,8.5 -60.54,15.5 -91.45,20.9 -501.6,88.6 -981.7,-247.6 -1070.22,-749 -42.9,-243 11.41,-488.1 152.89,-690.3 123.16,-176 299.57,-301 503.5,-358.7 30.3,-8.6 61.23,-15.7 92.65,-21.2 242.99,-42.9 488.12,11.4 690.26,152.8 176.02,123.2 301.07,299.7 358.77,503.7"
         style="fill:#efeff4;fill-opacity:1;fill-rule:nonzero;stroke:none"
         id="path70" />
      <path
         d="m 8212.6,21363.6 c -6.14,0 -12.36,1.7 -17.95,5.2 -23.2,14.6 -47.14,28.6 -71.16,41.8 -16.37,9 -22.47,29.5 -13.41,45.9 6.17,11.2 17.75,17.6 29.7,17.6 5.5,0 11.07,-1.3 16.23,-4.2 25.2,-13.8 50.31,-28.5 74.62,-43.8 13.03,-8.2 18.55,-23.8 14.57,-37.9 -0.86,-3 -2.15,-6 -3.9,-8.8 -6.45,-10.2 -17.45,-15.8 -28.7,-15.8"
         style="fill:#eeeff2;fill-opacity:1;fill-rule:nonzero;stroke:none"
         id="path72" />
      <path
         d="m 6032.76,20296.5 c -1.13,0 -2.27,0.1 -3.42,0.2 -18.59,1.8 -32.14,18.4 -30.28,37 5.15,51.5 13.22,103.5 23.93,154.6 1.58,7.8 3.28,15.5 5.02,23.2 3.08,15.7 17.33,26.3 32.88,26.3 2.52,0 5.07,-0.2 7.62,-0.8 18.23,-4.2 29.62,-22.3 25.49,-40.5 -1.67,-7.2 -3.24,-14.5 -4.75,-21.9 -10.27,-48.9 -17.96,-98.6 -22.88,-147.7 -0.2,-2 -0.59,-3.9 -1.11,-5.8 -4.08,-14.4 -17.33,-24.6 -32.5,-24.6 m 77.42,342.6 c -3.81,0 -7.67,0.6 -11.46,2 -17.57,6.3 -26.45,25.6 -20.4,43.3 20.34,56.5 44.32,112.1 71.3,165.4 5.97,11.7 17.87,18.5 30.22,18.5 5.14,0 10.35,-1.2 15.25,-3.6 14.66,-7.5 21.58,-24.1 17.26,-39.4 -0.58,-2.1 -1.36,-4.1 -2.38,-6.1 -25.72,-50.8 -48.59,-103.8 -67.96,-157.7 -4.98,-13.8 -17.98,-22.4 -31.83,-22.4 m 158.67,313.2 c -6.5,0 -13.06,1.9 -18.85,5.8 -15.49,10.5 -19.59,31.4 -9.17,47 33.39,49.6 70.29,97.6 109.63,142.7 6.69,7.7 16.09,11.6 25.52,11.6 7.88,0 15.8,-2.7 22.2,-8.3 10.19,-8.9 13.78,-22.5 10.32,-34.7 -1.31,-4.7 -3.64,-9.1 -7.04,-13 -37.51,-43.1 -72.67,-88.8 -104.52,-136.1 -6.52,-9.7 -17.21,-15 -28.09,-15 m 230.64,264.6 c -9.28,0 -18.53,3.9 -25.22,11.3 -12.47,13.9 -11.33,35.3 2.63,47.8 44.52,39.9 92.03,77.4 141.16,111.7 5.89,4.1 12.63,6.1 19.31,6.1 10.69,0 21.21,-5.1 27.78,-14.5 6.03,-8.7 7.45,-19.2 4.79,-28.6 -2.05,-7.3 -6.54,-13.9 -13.21,-18.5 -46.9,-32.7 -92.2,-68.5 -134.7,-106.6 -6.44,-5.8 -14.5,-8.7 -22.54,-8.7 m 288.23,200.7 c -12.15,0 -23.88,6.5 -29.93,18 -8.7,16.5 -2.42,37 14.09,45.7 52.88,27.9 108.09,52.9 164.17,74.1 3.95,1.5 8,2.3 11.98,2.3 13.66,0 26.53,-8.4 31.66,-21.9 2.64,-7 2.82,-14.4 0.92,-21.2 -2.82,-9.9 -10.14,-18.5 -20.57,-22.4 -53.46,-20.3 -106.16,-44.1 -156.54,-70.7 -5.04,-2.7 -10.45,-3.9 -15.78,-3.9 m 1192.82,63.7 c -4.15,0 -8.37,0.7 -12.47,2.4 -43.83,17.3 -89.08,32.6 -134.45,45.5 -9.56,2.7 -19.2,5.3 -28.88,7.8 -18.07,4.7 -28.91,23.2 -24.21,41.3 4.37,14.4 18.11,25.2 33.27,25.2 2.64,0 5.33,-0.3 8.02,-1 10.13,-2.7 20.21,-5.4 30.22,-8.2 47.56,-13.5 94.99,-29.5 140.96,-47.8 16.27,-6.4 24.76,-24.1 20.1,-40.6 -0.31,-1.1 -0.7,-2.2 -1.1,-3.3 -5.28,-13.2 -18,-21.3 -31.46,-21.3 m -864.43,60.8 c -15.23,0 -29.08,10.4 -32.85,25.8 -4.42,18.2 6.68,36.5 24.86,40.9 58.22,14.2 117.92,24.9 177.37,31.7 1.32,0.2 2.62,0.3 3.91,0.3 16.95,0 31.6,-12.8 33.58,-30 0.5,-4.5 0.12,-8.9 -1.05,-13.1 -3.62,-12.8 -14.65,-22.8 -28.68,-24.4 -56.71,-6.5 -113.59,-16.7 -169.13,-30.2 -2.68,-0.7 -5.37,-1 -8.01,-1 m 524.55,27.7 c -1.49,0 -2.99,0.1 -4.51,0.3 -56.67,7.6 -114.32,11.7 -171.32,12.3 -18.69,0.1 -33.67,15.4 -33.49,34.1 0.21,18.5 15.27,33.5 33.82,33.5 0.11,0 0.23,0 0.34,0 59.74,-0.6 120.18,-4.9 179.6,-12.8 18.52,-2.5 31.52,-19.5 29.07,-38.1 -0.22,-1.6 -0.57,-3.2 -1.01,-4.7 -4.1,-14.5 -17.41,-24.6 -32.5,-24.6"
         style="fill:#eeeff2;fill-opacity:1;fill-rule:nonzero;stroke:none"
         id="path74" />
      <path
         d="m 7721.78,18752.8 c -15.91,0 -30.07,11.3 -33.19,27.5 -3.53,18.3 8.52,36.1 26.82,39.6 3.13,0.6 6.26,1.2 9.39,1.8 v -68.7 c -1.01,-0.1 -2.02,-0.2 -3.02,-0.2"
         style="fill:#e3e4ea;fill-opacity:1;fill-rule:nonzero;stroke:none"
         id="path76" />
      <path
         d="m 8808.77,20601.5 c -14.18,0 -27.41,9 -32.11,23.2 -8.67,26.2 -18.16,52.3 -28.19,77.6 -6.86,17.3 1.65,37 18.96,43.9 4.09,1.6 8.31,2.4 12.47,2.4 13.46,0 26.19,-8.1 31.47,-21.4 10.5,-26.4 20.45,-53.8 29.53,-81.3 2.19,-6.6 2.21,-13.5 0.44,-19.8 -2.96,-10.4 -10.88,-19.2 -21.94,-22.9 -3.52,-1.2 -7.11,-1.7 -10.63,-1.7"
         style="fill:#e3e4ea;fill-opacity:1;fill-rule:nonzero;stroke:none"
         id="path78" />
      <path
         d="m 8269.77,20922.9 c -4.2,6 -11.72,8.7 -18.75,6.7 l -200.45,-57.4 c -72.55,65 -155.98,118.8 -248.07,158.2 l -32.65,205.8 c -1.14,7.2 -6.74,13 -13.94,14.2 l -246.27,43.5 c -7.2,1.3 -14.41,-2.2 -17.96,-8.6 l -101.12,-182.1 c -100.05,-5.6 -196.86,-27.6 -287.26,-63.8 l -168.7,122.5 c -5.91,4.4 -13.9,4.4 -19.89,0.2 l -204.88,-143.4 c -5.99,-4.2 -8.66,-11.7 -6.65,-18.7 l 57.34,-200.5 c -64.93,-72.5 -118.76,-155.9 -158.23,-248.1 l -205.78,-32.6 c -7.21,-1.1 -12.91,-6.7 -14.18,-13.9 l -43.48,-246.3 c -1.27,-7.2 2.18,-14.4 8.56,-18 l 182.17,-101.1 c 5.54,-100 27.55,-196.8 63.73,-287.2 l -122.51,-168.7 c -4.29,-6 -4.36,-13.9 -0.17,-19.9 l 143.4,-204.9 c 4.19,-6 11.72,-8.7 18.74,-6.7 l 200.45,57.4 c 72.55,-64.9 155.97,-118.8 248.08,-158.2 l 32.65,-205.8 c 1.13,-7.2 6.73,-12.9 13.93,-14.2 l 246.28,-43.5 c 7.19,-1.3 14.4,2.2 17.95,8.6 l 101.13,182.1 c 100.04,5.6 196.86,27.6 287.26,63.8 l 168.69,-122.5 c 5.92,-4.3 13.9,-4.4 19.89,-0.2 l 204.88,143.4 c 5.99,4.2 8.66,11.7 6.65,18.7 l -57.34,200.5 c 64.94,72.5 118.77,156 158.23,248.1 l 205.78,32.6 c 7.22,1.1 12.91,6.7 14.18,13.9 l 43.48,246.3 c 1.27,7.2 -2.17,14.4 -8.56,18 l -182.16,101.1 c -5.54,100 -27.56,196.9 -63.73,287.2 l 122.5,168.8 c 4.3,5.9 4.36,13.9 0.17,19.8 l -143.39,204.9"
         style="fill:#c6c9d3;fill-opacity:1;fill-rule:nonzero;stroke:none"
         id="path80" />
      <path
         d="m 7364.79,20019.1 c 45.87,-20.6 97.01,-22.1 144.03,-4.2 46.97,17.9 84.2,53 104.79,98.9 20.54,45.9 22.09,97 4.22,144 -17.85,47 -52.99,84.2 -98.84,104.8 -94.67,42.5 -206.28,0 -248.81,-94.6 -3.83,-8.6 -6.97,-17.2 -9.45,-26 -24.98,-88.3 17.94,-184.2 104.06,-222.9 z m 310.55,67 c -27.98,-62.4 -78.59,-110.1 -142.49,-134.4 -63.87,-24.3 -133.4,-22.3 -195.76,5.7 -128.71,57.8 -186.27,209.3 -128.64,338.3 57.83,128.7 209.56,186.4 338.23,128.6 62.37,-28 110.09,-78.6 134.39,-142.5 19.75,-51.9 22.09,-107.6 7.24,-160.1 -3.42,-12.1 -7.75,-24 -12.97,-35.6"
         style="fill:#efeff4;fill-opacity:1;fill-rule:nonzero;stroke:none"
         id="path82" />
      <path
         d="m 8050.39,20014.2 c 5.83,20.6 10.65,41.7 14.47,63.2 7.56,42.7 10.77,86.3 9.54,129.5 -0.06,1.9 -0.13,3.9 -0.2,5.8 -0.56,15 -10.83,27.4 -24.56,31.3 -3.33,0.9 -6.88,1.4 -10.52,1.3 -18.67,-0.7 -33.15,-16.5 -32.52,-35.1 1.53,-40.4 -1.3,-81.1 -8.37,-121 h -0.01 c -0.38,-2.2 -0.79,-4.4 -1.2,-6.6 -17.59,-94.3 -58.02,-180.7 -116.99,-253.2 -32.01,-39.4 -69.53,-74.7 -111.9,-104.9 l -1.03,-0.7 c -1.07,-0.8 -2.1,-1.5 -3.17,-2.3 -124.66,-87.2 -275.82,-120.7 -425.65,-94.2 -19.39,3.4 -38.45,7.7 -57.14,13 -125.75,35.6 -234.53,112.7 -310.51,221.3 -87.23,124.6 -120.69,275.8 -94.24,425.6 26.49,149.7 109.66,280.4 234.29,367.6 124.66,87.3 275.82,120.8 425.65,94.3 19.07,-3.3 37.89,-7.7 56.39,-12.9 80.23,-22.7 154.58,-62.7 217.59,-117.4 3.89,-3.4 8.31,-5.7 12.96,-7 12.2,-3.5 25.89,0.1 34.76,10.4 12.2,14.1 10.75,35.4 -3.39,47.7 -70.51,61.2 -153.71,106 -243.43,131.4 -20.73,5.8 -41.78,10.7 -63.1,14.4 -167.66,29.6 -336.77,-7.8 -476.23,-105.4 -139.44,-97.7 -232.64,-243.6 -262.13,-411.3 -29.6,-167.7 7.84,-336.8 105.48,-476.2 84.97,-121.5 206.67,-207.7 347.37,-247.5 20.89,-5.9 42.22,-10.9 63.9,-14.7 324.55,-57.3 636.04,143.1 723.89,453.6"
         style="fill:#efeff4;fill-opacity:1;fill-rule:nonzero;stroke:none"
         id="path84" />
      <path
         d="m 20081.5,6375.8 h -5314.2 c -206,0 -373,167 -373,373.1 v 882.7 c 0,206 167,373 373,373 h 5314.2 c 206,0 373,-167 373,-373 v -882.7 c 0,-206.1 -167,-373.1 -373,-373.1"
         style="fill:#979aa0;fill-opacity:1;fill-rule:nonzero;stroke:none"
         id="path86" />
      <path
         d="m 15899.4,6919.9 h -645.7 c -18.2,0 -34.2,12 -39.4,29.5 l -185,623.9 -192.9,25 c -22.5,2.9 -38.4,23.5 -35.5,46.1 2.9,22.4 23.4,38.2 46.1,35.4 l 219.4,-28.4 c 16.1,-2.1 29.5,-13.5 34.1,-29.1 l 183.9,-620.2 h 580.9 l 84.8,448 c 4.2,22.3 25.8,37 48,32.8 22.4,-4.3 37,-25.8 32.8,-48.1 l -91.2,-481.4 c -3.6,-19.4 -20.6,-33.5 -40.3,-33.5"
         style="fill:#ffffff;fill-opacity:1;fill-rule:nonzero;stroke:none"
         id="path88" />
      <path
         d="m 15973.5,7413.2 h -855.1 c -22.7,0 -41.1,18.5 -41.1,41.2 0,22.7 18.4,41.1 41.1,41.1 h 855.1 c 22.7,0 41.1,-18.4 41.1,-41.1 0,-22.7 -18.4,-41.2 -41.1,-41.2"
         style="fill:#ffffff;fill-opacity:1;fill-rule:nonzero;stroke:none"
         id="path90" />
      <path
         d="m 15406.2,6961 c -22.7,0 -41.1,18.4 -41.1,41.1 v 444 c 0,22.7 18.4,41.1 41.1,41.1 22.7,0 41.1,-18.4 41.1,-41.1 v -444 c 0,-22.7 -18.4,-41.1 -41.1,-41.1"
         style="fill:#ffffff;fill-opacity:1;fill-rule:nonzero;stroke:none"
         id="path92" />
      <path
         d="m 15718.6,6961 c -22.7,0 -41.1,18.4 -41.1,41.1 v 444 c 0,22.7 18.4,41.1 41.1,41.1 22.7,0 41.1,-18.4 41.1,-41.1 v -444 c 0,-22.7 -18.4,-41.1 -41.1,-41.1"
         style="fill:#ffffff;fill-opacity:1;fill-rule:nonzero;stroke:none"
         id="path94" />
      <path
         d="m 15924.2,7166.6 h -740 c -22.7,0 -41.1,18.4 -41.1,41.1 0,22.7 18.4,41.1 41.1,41.1 h 740 c 22.7,0 41.1,-18.4 41.1,-41.1 0,-22.7 -18.4,-41.1 -41.1,-41.1"
         style="fill:#ffffff;fill-opacity:1;fill-rule:nonzero;stroke:none"
         id="path96" />
      <path
         d="m 15434.9,6776.6 c 0,-42.1 -34.2,-76.3 -76.4,-76.3 -42.1,0 -76.3,34.2 -76.3,76.3 0,42.2 34.2,76.3 76.3,76.3 42.2,0 76.4,-34.1 76.4,-76.3"
         style="fill:#ffffff;fill-opacity:1;fill-rule:nonzero;stroke:none"
         id="path98" />
      <path
         d="m 15900,6776.6 c 0,-42.1 -34.2,-76.3 -76.3,-76.3 -42.2,0 -76.3,34.2 -76.3,76.3 0,42.2 34.1,76.3 76.3,76.3 42.1,0 76.3,-34.1 76.3,-76.3"
         style="fill:#ffffff;fill-opacity:1;fill-rule:nonzero;stroke:none"
         id="path100" />
      <path
         d="m 19757.1,7458.2 h -3104.6 c -40.6,0 -73.5,32.9 -73.5,73.4 v 7.2 c 0,40.5 32.9,73.5 73.5,73.5 h 3104.6 c 40.6,0 73.5,-33 73.5,-73.5 v -7.2 c 0,-40.5 -32.9,-73.4 -73.5,-73.4"
         style="fill:#eaebec;fill-opacity:1;fill-rule:nonzero;stroke:none"
         id="path102" />
      <path
         d="m 19757.1,7130.6 h -3104.6 c -40.6,0 -73.5,32.9 -73.5,73.5 v 7.2 c 0,40.5 32.9,73.4 73.5,73.4 h 3104.6 c 40.6,0 73.5,-32.9 73.5,-73.4 v -7.2 c 0,-40.6 -32.9,-73.5 -73.5,-73.5"
         style="fill:#eaebec;fill-opacity:1;fill-rule:nonzero;stroke:none"
         id="path104" />
      <path
         d="m 18562.8,6803.1 h -1910.3 c -40.6,0 -73.5,32.9 -73.5,73.5 v 7.2 c 0,40.5 32.9,73.4 73.5,73.4 h 1910.3 c 40.6,0 73.5,-32.9 73.5,-73.4 v -7.2 c 0,-40.6 -32.9,-73.5 -73.5,-73.5"
         style="fill:#eaebec;fill-opacity:1;fill-rule:nonzero;stroke:none"
         id="path106" />
      <path
         d="m 20081.5,8459.5 h -5314.2 c -206,0 -373,167 -373,373 v 882.8 c 0,206 167,373 373,373 h 5314.2 c 206,0 373,-167 373,-373 v -882.8 c 0,-206 -167,-373 -373,-373"
         style="fill:#979aa0;fill-opacity:1;fill-rule:nonzero;stroke:none"
         id="path108" />
      <path
         d="m 15828.4,9112 c 0,-36.8 2,-75 -27.7,-75 h -31.9 l -137.7,-153.7 v 103.4 c 0,20.2 -1.2,50.3 -21.5,50.3 H 14945 c -36.5,0 -103.2,38.5 -103.2,75 v 456.3 c 0,53.2 66.4,60.7 103.2,60.7 h 855.7 c 36.3,0 27.7,-4.8 27.7,-41 z m -27.7,599.2 H 14945 c -79.3,0 -169,-41.5 -169,-123.2 v -476 c 0,-78.4 90.6,-157.2 169,-157.2 h 588.6 c 20.3,0 31.7,-23.8 31.7,-44.1 v -70.3 c 0,-29 28.7,-39.7 43,-44.5 6.8,-4.8 18.3,-11.9 32.6,-11.9 11.8,0 23.5,5 31.1,14 l 126.4,149.5 c 80,1.7 112.3,86.1 112.3,164.5 v 476 c 0,77.8 -32.1,123.2 -110,123.2"
         style="fill:#ffffff;fill-opacity:1;fill-rule:nonzero;stroke:none"
         id="path110" />
      <path
         d="m 15746.2,9476.7 c 0,-15.8 -12.8,-28.6 -28.6,-28.6 h -765 c -15.8,0 -28.6,12.8 -28.6,28.6 v 8.6 c 0,15.8 12.8,28.6 28.6,28.6 h 765 c 15.8,0 28.6,-12.8 28.6,-28.6 v -8.6"
         style="fill:#ffffff;fill-opacity:1;fill-rule:nonzero;stroke:none"
         id="path112" />
      <path
         d="m 15746.2,9312.3 c 0,-15.8 -12.8,-28.6 -28.6,-28.6 h -765 c -15.8,0 -28.6,12.8 -28.6,28.6 v 8.5 c 0,15.8 12.8,28.6 28.6,28.6 h 765 c 15.8,0 28.6,-12.8 28.6,-28.6 v -8.5"
         style="fill:#ffffff;fill-opacity:1;fill-rule:nonzero;stroke:none"
         id="path114" />
      <path
         d="m 15746.2,9147.8 c 0,-15.8 -12.8,-28.6 -28.6,-28.6 h -765 c -15.8,0 -28.6,12.8 -28.6,28.6 v 8.6 c 0,15.8 12.8,28.6 28.6,28.6 h 765 c 15.8,0 28.6,-12.8 28.6,-28.6 v -8.6"
         style="fill:#ffffff;fill-opacity:1;fill-rule:nonzero;stroke:none"
         id="path116" />
      <path
         d="m 19714.8,9541.8 h -3104.6 c -40.6,0 -73.5,32.9 -73.5,73.5 v 7.1 c 0,40.6 32.9,73.5 73.5,73.5 h 3104.6 c 40.6,0 73.5,-32.9 73.5,-73.5 v -7.1 c 0,-40.6 -32.9,-73.5 -73.5,-73.5"
         style="fill:#eaebec;fill-opacity:1;fill-rule:nonzero;stroke:none"
         id="path118" />
      <path
         d="m 19714.8,9214.3 h -3104.6 c -40.6,0 -73.5,32.9 -73.5,73.5 v 7.1 c 0,40.6 32.9,73.5 73.5,73.5 h 3104.6 c 40.6,0 73.5,-32.9 73.5,-73.5 v -7.1 c 0,-40.6 -32.9,-73.5 -73.5,-73.5"
         style="fill:#eaebec;fill-opacity:1;fill-rule:nonzero;stroke:none"
         id="path120" />
      <path
         d="m 18520.5,8886.8 h -1910.3 c -40.6,0 -73.5,32.9 -73.5,73.5 v 7.1 c 0,40.6 32.9,73.5 73.5,73.5 h 1910.3 c 40.6,0 73.5,-32.9 73.5,-73.5 v -7.1 c 0,-40.6 -32.9,-73.5 -73.5,-73.5"
         style="fill:#eaebec;fill-opacity:1;fill-rule:nonzero;stroke:none"
         id="path122" />
      <path
         d="m 19993,10569.6 h -5314.2 c -206,0 -373,167 -373,373 v 882.8 c 0,206 167,373 373,373 H 19993 c 206,0 373,-167 373,-373 v -882.8 c 0,-206 -167,-373 -373,-373"
         style="fill:#979aa0;fill-opacity:1;fill-rule:nonzero;stroke:none"
         id="path124" />
      <path
         d="m 15253.4,11796 c -112.7,0 -219.4,-38.3 -302.6,-109.2 -87.9,-74.8 -138.9,-177 -143.8,-287.7 -10,-229.5 183.8,-425.2 432,-436.1 120.7,-5.2 236,33.2 324.6,108.7 87.9,74.8 138.9,177 143.8,287.7 10,229.6 -183.8,425.2 -432,436.2 -7.3,0.3 -14.7,0.4 -22,0.4 z m 7.6,-901.9 c -8.3,0 -16.6,0.2 -25,0.5 -285.9,12.6 -509,240.3 -497.3,507.5 5.7,129.9 65.3,249.6 167.8,336.8 101.8,86.7 234,131 371.9,125 285.9,-12.6 509,-240.3 497.3,-507.5 v 0 c -5.7,-129.9 -65.3,-249.5 -167.8,-336.8 -95.6,-81.4 -218,-125.5 -346.9,-125.5"
         style="fill:#ffffff;fill-opacity:1;fill-rule:nonzero;stroke:none"
         id="path126" />
      <path
         d="m 15375.2,11377.1 c 0.1,39.6 -1.4,79.2 -4.7,118.7 -3.3,39.5 -8.2,78.9 -15.5,117.8 -3.6,19.5 -7.8,38.9 -12.9,58 -5.1,19.1 -10.9,38.1 -18,56.5 -7.2,18.4 -15.5,36.5 -26.6,52.8 -5.5,8.1 -11.8,15.8 -19.3,22.1 -3.7,3.1 -7.8,5.8 -12.2,7.8 -4.4,2 -9.2,3.3 -14,3.5 -4.8,0.1 -9.7,-0.9 -14.1,-2.7 -4.5,-1.8 -8.6,-4.5 -12.4,-7.6 -7.5,-6.3 -13.5,-14.1 -18.8,-22.4 -5.3,-8.3 -9.8,-17.1 -13.8,-26.2 -4,-9 -7.5,-18.2 -10.7,-27.6 -6.4,-18.7 -11.4,-37.8 -15.8,-57.2 -4.3,-19.3 -7.9,-38.8 -11,-58.4 -6,-39.1 -10,-78.6 -12.5,-118.1 -2.5,-39.6 -3.3,-79.2 -3.3,-118.9 -0.1,-39.6 1.2,-79.2 4.2,-118.8 2.9,-39.5 7.5,-78.9 14.3,-117.9 3.4,-19.5 7.3,-38.9 12.1,-58.1 4.7,-19.2 10.2,-38.2 17.1,-56.8 6.8,-18.5 14.8,-36.7 25.6,-53.1 5.4,-8.1 11.6,-15.8 19.1,-21.9 3.8,-3 7.8,-5.7 12.2,-7.4 4.4,-1.9 9.2,-2.9 13.9,-2.7 4.7,0.1 9.4,1.4 13.7,3.4 4.3,2 8.3,4.7 12,7.9 7.3,6.3 13.4,14.1 18.7,22.3 10.6,16.5 18.5,34.7 25.3,53.3 6.7,18.5 12.1,37.6 16.8,56.8 4.7,19.2 8.7,38.6 12,58.2 6.7,39 11.2,78.4 14.2,117.9 3,39.5 4.4,79.2 4.4,118.8 z m 5.9,0 c -0.2,-79.5 -5.6,-159.2 -19.6,-237.6 -3.5,-19.6 -7.6,-39.1 -12.5,-58.4 -4.9,-19.3 -10.5,-38.4 -17.4,-57.1 -7,-18.7 -15.1,-37.1 -26.1,-53.9 -5.5,-8.3 -11.8,-16.3 -19.6,-22.9 -3.8,-3.3 -8.1,-6.1 -12.8,-8.3 -4.7,-2.1 -9.8,-3.4 -14.9,-3.5 -5.2,-0.2 -10.4,0.9 -15.1,2.8 -4.8,1.9 -9.2,4.7 -13.1,7.8 -8,6.4 -14.4,14.3 -20,22.6 -11.2,16.6 -19.4,35 -26.5,53.6 -7,18.7 -12.7,37.8 -17.6,57.1 -5,19.3 -9.1,38.8 -12.7,58.3 -7.1,39.2 -11.9,78.7 -15.2,118.4 -3.3,39.6 -4.9,79.4 -5.1,119.2 -0.1,19.9 0.5,39.8 1.2,59.7 0.7,19.8 1.8,39.7 3.3,59.5 2.9,39.7 7.3,79.3 13.8,118.5 3.2,19.7 7,39.2 11.6,58.6 4.6,19.3 9.9,38.5 16.6,57.3 3.3,9.4 6.9,18.7 11.1,27.8 4.1,9 8.8,17.9 14.2,26.3 5.5,8.3 11.7,16.3 19.5,22.7 4,3.1 8.3,5.9 13,7.7 4.7,1.9 9.8,2.9 14.8,2.7 5.1,-0.2 10.1,-1.4 14.7,-3.5 4.6,-2 8.9,-4.8 12.8,-8 7.8,-6.3 14.2,-14.1 20,-22.3 11.3,-16.4 19.9,-34.5 27.4,-53 7.3,-18.5 13.4,-37.5 18.7,-56.7 5.3,-19.1 9.8,-38.5 13.7,-58.1 15.3,-78.1 21.5,-157.8 21.8,-237.3"
         style="fill:#ffffff;fill-opacity:1;fill-rule:nonzero;stroke:none"
         id="path128" />
      <path
         d="m 15251,11802.7 c -2.9,0 -5.9,-0.6 -8.7,-1.8 -3.1,-1.3 -6.2,-3.2 -9.4,-5.9 -5.7,-4.7 -10.9,-11 -16.5,-19.7 -4.5,-7.1 -8.7,-15.2 -12.9,-24.6 -3.6,-8 -7,-16.7 -10.4,-26.6 -5.7,-16.8 -10.7,-35.1 -15.5,-56 -4,-18.1 -7.6,-37 -10.8,-57.6 -5.6,-36.7 -9.7,-75 -12.3,-117.2 -2.3,-36 -3.4,-74.6 -3.3,-118 -0.1,-40.1 1.3,-79.8 4.1,-118 3.1,-41.9 7.8,-80.1 14.1,-116.8 3.6,-20.5 7.5,-39.3 12,-57.3 5.1,-20.8 10.6,-38.9 16.7,-55.6 7.8,-21.1 15.6,-37.3 24.4,-50.7 5.7,-8.5 11.1,-14.6 16.8,-19.3 3.2,-2.6 6.3,-4.5 9.3,-5.7 3.2,-1.3 6.1,-1.8 9.1,-1.8 3,0.1 6.1,0.8 9.3,2.3 3,1.4 6.1,3.5 9.3,6.2 5.6,4.8 10.9,11.2 16.5,19.8 8.7,13.5 16.4,29.7 24.1,50.9 6,16.7 11.4,34.9 16.5,55.7 4.4,17.9 8.3,36.7 11.8,57.3 6.3,36.4 10.9,74.6 14.1,116.9 2.9,38.1 4.4,77.8 4.3,117.9 v 0 c 0.1,40 -1.5,79.6 -4.6,117.8 -3.5,42 -8.5,80.1 -15.3,116.6 -3.8,20.3 -8,39 -12.8,57.1 -5.4,20.6 -11.2,38.7 -17.6,55.3 -8.2,21 -16.2,37 -25.3,50.5 -5.9,8.5 -11.3,14.8 -17.2,19.7 -3.2,2.6 -6.5,4.7 -9.6,6.2 -3.3,1.5 -6.5,2.3 -9.5,2.4 z m 6,-878.9 c -6,0 -12.3,1.2 -18.2,3.6 -5.5,2.2 -10.7,5.3 -16,9.5 -8,6.4 -15,14.4 -22.4,25.1 -10.1,15.2 -18.9,33 -27.7,56.1 -6.6,17.6 -12.5,36.7 -18,58.3 -4.8,18.6 -9,38 -12.8,59.2 -6.9,37.5 -11.9,76.6 -15.4,119.4 -3.2,39 -4.9,79.4 -5.1,120.2 -0.1,21.3 0.5,42.3 1.1,60.1 0.8,20.2 1.9,40.4 3.3,60 3.2,43.1 7.8,82.2 14,119.5 3.5,21.3 7.4,40.7 11.8,59.4 5.1,21.7 10.7,40.9 16.9,58.5 3.7,10.6 7.5,20 11.5,28.7 4.8,10.6 9.7,19.7 15,27.8 7.2,10.9 14.1,19 22,25.4 5.2,4.2 10.5,7.4 15.9,9.5 6.2,2.5 13,3.7 19.6,3.5 6.2,-0.2 12.6,-1.7 18.9,-4.5 5.2,-2.3 10.2,-5.4 15.3,-9.5 7.8,-6.4 14.9,-14.2 22.2,-24.7 10.4,-15 19.5,-32.6 28.6,-55.3 7.1,-17.6 13.3,-36.5 19.2,-58 5.2,-18.6 9.7,-37.9 13.9,-58.9 14.5,-74.2 21.7,-152.6 22,-239.6 v 0 c -0.1,-87.6 -6.6,-166 -19.7,-239.7 -3.8,-21.1 -8,-40.5 -12.7,-59.2 -5.5,-21.6 -11.3,-40.7 -17.8,-58.3 -8.7,-23.1 -17.3,-41 -27.3,-56.1 -7.2,-10.9 -14.1,-18.9 -21.7,-25.4 -5.2,-4.4 -10.2,-7.6 -15.5,-10 -6.5,-3 -13,-4.5 -19.5,-4.6 h -1.4"
         style="fill:#ffffff;fill-opacity:1;fill-rule:nonzero;stroke:none"
         id="path130" />
      <path
         d="m 15574.2,11377.1 c -0.1,50.6 -6.4,101.3 -19.7,150.2 -13.4,48.8 -33.5,95.9 -61.3,138.3 -13.8,21.1 -29.6,41.1 -47.2,59.2 -17.6,18.1 -37.1,34.5 -58.4,48.1 -21.4,13.5 -44.4,24.4 -68.6,31.8 -24.1,7.4 -49.3,11.2 -74.6,11.3 -25.2,-0.1 -50.4,-4 -74.6,-11.4 -24.1,-7.4 -47.1,-18.3 -68.5,-31.8 -21.2,-13.7 -40.7,-30 -58.3,-48.2 -17.6,-18.1 -33.3,-38 -47.1,-59.2 -27.7,-42.4 -47.8,-89.5 -61.1,-138.2 -6.7,-24.5 -11.5,-49.3 -14.7,-74.4 -3.3,-25.1 -4.9,-50.4 -5,-75.7 0.1,-25.3 1.7,-50.6 5,-75.7 3.3,-25.1 8.1,-50 14.8,-74.4 13.3,-48.7 33.4,-95.8 61.1,-138.1 13.9,-21.1 29.6,-41.1 47.2,-59.2 17.6,-18.1 37,-34.4 58.3,-48 21.3,-13.5 44.3,-24.4 68.5,-31.8 24,-7.4 49.2,-11.3 74.4,-11.4 25.2,0.1 50.4,4 74.5,11.4 24.1,7.3 47.2,18.1 68.5,31.7 21.3,13.5 40.8,29.9 58.4,48 17.6,18.1 33.4,38 47.3,59.1 27.7,42.4 47.9,89.4 61.3,138.2 13.4,48.9 19.7,99.6 19.8,150.2 z m 6.7,0 c -0.3,-51.2 -6.8,-102.5 -20.5,-151.9 -13.9,-49.2 -34.8,-96.6 -63.3,-139.2 -14.2,-21.2 -30.3,-41.2 -48.3,-59.4 -18,-18.1 -37.9,-34.4 -59.5,-48.1 -21.6,-13.6 -45,-24.5 -69.4,-31.8 -24.4,-7.4 -49.9,-11.3 -75.5,-11.3 -25.5,0 -51,3.8 -75.5,11.2 -24.4,7.4 -47.8,18.2 -69.4,31.8 -21.6,13.6 -41.6,29.9 -59.6,48 -18,18.2 -34.2,38.2 -48.4,59.4 -28.5,42.6 -49.5,90 -63.5,139.3 -6.8,24.7 -12,49.9 -15.3,75.3 -3.4,25.4 -5.1,51.1 -5.2,76.7 0.1,25.6 1.8,51.2 5.2,76.6 3.4,25.5 8.5,50.6 15.4,75.3 14,49.3 35,96.7 63.6,139.2 14.2,21.2 30.4,41.2 48.4,59.3 18,18.1 37.9,34.4 59.5,48 21.7,13.5 45,24.3 69.5,31.7 24.4,7.4 49.8,11.2 75.3,11.3 25.5,-0.1 51,-4 75.4,-11.4 24.4,-7.4 47.7,-18.2 69.3,-31.7 21.6,-13.6 41.5,-29.9 59.5,-48 18,-18.2 34.1,-38.1 48.3,-59.4 28.5,-42.5 49.5,-89.9 63.4,-139.1 13.7,-49.4 20.3,-100.6 20.6,-151.8"
         style="fill:#ffffff;fill-opacity:1;fill-rule:nonzero;stroke:none"
         id="path132" />
      <path
         d="m 15244.4,11804.4 c -23.9,-0.1 -47.9,-3.7 -71.2,-10.8 -22.5,-6.9 -44.6,-17.2 -65.7,-30.6 -19.5,-12.5 -38.4,-28.1 -56.2,-46.4 -16.6,-17.1 -32,-36.5 -45.8,-57.6 -26,-39.7 -46,-85.1 -59.6,-134.9 -6.3,-23 -11.1,-47.5 -14.4,-72.8 -3.1,-24.3 -4.8,-49.2 -4.8,-74.2 0.1,-25 1.7,-50 4.9,-74.2 3.3,-25.2 8.1,-49.7 14.4,-72.8 13.6,-49.8 33.7,-95.1 59.7,-134.8 13.8,-21.1 29.2,-40.4 45.8,-57.5 17.8,-18.3 36.7,-33.9 56.2,-46.4 20.9,-13.2 43,-23.5 65.6,-30.4 23.3,-7.1 47.2,-10.8 71.2,-10.9 23.9,0.1 47.8,3.7 71,10.8 22.7,7 44.8,17.2 65.7,30.5 19.5,12.4 38.5,28 56.4,46.3 16.6,17 32,36.4 45.8,57.4 26,39.7 46.2,85.1 59.9,134.9 12.7,46.6 19.2,96.1 19.3,147.1 -0.1,51 -6.5,100.5 -19.2,147.1 -13.7,49.8 -33.8,95.3 -59.8,135 -13.8,21 -29.2,40.4 -45.9,57.5 -17.8,18.3 -36.7,33.9 -56.3,46.4 -21.1,13.4 -43.2,23.6 -65.7,30.5 -23.3,7.1 -47.3,10.8 -71.3,10.8 z m 0,-880.6 c -26.5,0 -53,3.9 -78.8,11.7 -24.9,7.5 -49.2,18.6 -72.3,33.1 -21.7,13.7 -42.5,30.4 -61.6,49.7 -18,18.1 -34.8,38.7 -49.8,61.1 -28.3,42.2 -50.2,90.2 -65,142.6 -6.9,24.9 -12.2,50.8 -15.7,76.9 -3.4,25.5 -5.1,51.8 -5.3,78.1 0.2,26.5 2,52.8 5.4,78.3 3.5,26.1 8.8,51.9 15.7,76.8 14.9,52.4 36.8,100.4 65.1,142.6 15,22.3 31.8,42.9 49.8,61 19.2,19.3 39.9,36 61.6,49.6 22.9,14.3 47.2,25.4 72.2,33 25.7,7.8 52.2,11.7 78.7,11.7 26.6,0 53.1,-4 78.7,-11.8 25,-7.5 49.3,-18.6 72.1,-33 21.8,-13.7 42.5,-30.4 61.6,-49.6 18,-18.2 34.8,-38.7 49.7,-61.1 28.3,-42.2 50.1,-90.2 64.9,-142.4 13.6,-49.2 20.7,-101.3 21,-155 v -0.1 c -0.2,-53.6 -7.3,-105.7 -20.9,-154.9 -14.7,-52.3 -36.5,-100.3 -64.8,-142.5 -15,-22.5 -31.7,-43 -49.7,-61.2 -19.1,-19.2 -39.8,-35.9 -61.6,-49.7 -23,-14.5 -47.3,-25.6 -72.2,-33.1 -25.7,-7.8 -52.2,-11.8 -78.8,-11.8"
         style="fill:#ffffff;fill-opacity:1;fill-rule:nonzero;stroke:none"
         id="path134" />
      <path
         d="m 14851.8,11551.9 101,0.8 101.1,0.5 202.1,0.3 202.1,-0.4 101,-0.5 101.1,-0.9 0.3,-0.3 -0.3,-0.3 -101.1,-0.9 -101,-0.5 -202.1,-0.4 -202.1,0.4 -101.1,0.5 -101,0.8 -0.4,0.2 0.4,0.7"
         style="fill:#ffffff;fill-opacity:1;fill-rule:nonzero;stroke:none"
         id="path136" />
      <path
         d="m 15256,11537.7 -303.2,0.9 -105.9,0.8 -7.1,7.1 v 5.2 l 0.3,11.3 11.6,0.5 202.1,1.2 202.2,0.4 303.2,-0.9 112.5,-1 0.3,-23.4 -11.8,-0.2 -202.1,-1.4 -202.1,-0.5"
         style="fill:#ffffff;fill-opacity:1;fill-rule:nonzero;stroke:none"
         id="path138" />
      <path
         d="m 14969,11721.8 c 23.9,0.3 47.8,0.5 71.8,0.8 l 71.7,0.5 c 23.9,0.2 47.8,0.1 71.7,0.2 l 71.8,0.1 143.5,-0.4 71.7,-0.5 c 23.9,-0.3 47.8,-0.5 71.7,-0.9 l 0.3,-0.1 -0.3,-0.5 c -23.9,-0.4 -47.8,-0.6 -71.7,-0.9 l -71.7,-0.5 -143.5,-0.4 -71.8,0.2 c -23.9,0 -47.8,0 -71.7,0.2 l -71.7,0.5 c -24,0.2 -47.9,0.4 -71.8,0.8 l -0.4,0.4 0.4,0.5"
         style="fill:#ffffff;fill-opacity:1;fill-rule:nonzero;stroke:none"
         id="path140" />
      <path
         d="m 15256,11707.6 -90.4,0.2 c -17.7,0 -35.5,0.1 -53.2,0.2 l -95.7,0.7 c -15.9,0.2 -31.9,0.3 -47.9,0.6 l -11.3,0.2 -0.5,23.4 11.8,0.5 c 15.5,0.2 30.9,0.3 46.4,0.5 l 97.2,0.7 c 16.9,0.2 33.7,0.2 50.6,0.2 l 93,0.2 241.4,-1.2 c 15.2,-0.2 30.5,-0.3 45.7,-0.6 l 11.8,-0.2 -0.5,-23.3 -11.5,-0.3 c -15.7,-0.2 -31.7,-0.4 -47.7,-0.6 l -95.7,-0.8 -143.5,-0.4"
         style="fill:#ffffff;fill-opacity:1;fill-rule:nonzero;stroke:none"
         id="path142" />
      <path
         d="m 14816.7,11382 109.8,0.8 109.8,0.5 219.7,0.3 219.6,-0.4 109.9,-0.5 109.8,-0.9 0.3,-0.3 -0.3,-0.3 -109.8,-0.9 -109.9,-0.5 -219.6,-0.4 -219.7,0.4 -109.8,0.5 -109.8,0.8 -0.5,0.4 0.5,0.5"
         style="fill:#ffffff;fill-opacity:1;fill-rule:nonzero;stroke:none"
         id="path144" />
      <path
         d="m 15256,11367.8 -329.5,0.9 -121.4,0.9 -0.4,23.5 11.9,0.5 219.7,1.2 219.7,0.4 329.5,-0.9 114.7,-0.9 7,-7.1 -0.5,-16.4 -11.4,-0.3 -219.6,-1.4 -219.7,-0.4"
         style="fill:#ffffff;fill-opacity:1;fill-rule:nonzero;stroke:none"
         id="path146" />
      <path
         d="m 14851.8,11212.1 101,0.8 101.1,0.5 202.1,0.3 202.1,-0.4 101,-0.5 101.1,-0.9 0.3,-0.1 -0.3,-0.5 -101.1,-0.9 -101,-0.5 -202.1,-0.4 -202.1,0.4 -101.1,0.5 -101,0.8 -0.4,0.4 0.4,0.5"
         style="fill:#ffffff;fill-opacity:1;fill-rule:nonzero;stroke:none"
         id="path148" />
      <path
         d="m 15256,11197.9 -303.2,0.9 -105.9,0.8 -7.1,7.1 v 5.2 l 0.3,11.3 11.6,0.5 202.1,1.2 202.2,0.4 303.2,-0.9 112.5,-1 0.3,-23.4 -11.8,-0.3 -202.1,-1.4 -202.1,-0.4"
         style="fill:#ffffff;fill-opacity:1;fill-rule:nonzero;stroke:none"
         id="path150" />
      <path
         d="m 15557.4,11040.2 h -573.9 l -1.6,1.5 1.6,1.6 h 573.9 l 1.5,-1.6 -1.5,-1.5"
         style="fill:#ffffff;fill-opacity:1;fill-rule:nonzero;stroke:none"
         id="path152" />
      <path
         d="m 15557.4,11028.6 h -573.9 c -7.2,0 -13.1,5.9 -13.1,13.1 0,7.3 5.9,13.2 13.1,13.2 h 573.9 c 7.2,0 13.1,-5.9 13.1,-13.2 0,-7.2 -5.9,-13.1 -13.1,-13.1"
         style="fill:#ffffff;fill-opacity:1;fill-rule:nonzero;stroke:none"
         id="path154" />
      <path
         d="m 19583.9,11651.9 h -3104.5 c -40.6,0 -73.5,32.9 -73.5,73.5 v 7.1 c 0,40.6 32.9,73.5 73.5,73.5 h 3104.5 c 40.6,0 73.5,-32.9 73.5,-73.5 v -7.1 c 0,-40.6 -32.9,-73.5 -73.5,-73.5"
         style="fill:#eaebec;fill-opacity:1;fill-rule:nonzero;stroke:none"
         id="path156" />
      <path
         d="m 19583.9,11324.4 h -3104.5 c -40.6,0 -73.5,32.9 -73.5,73.5 v 7.1 c 0,40.6 32.9,73.5 73.5,73.5 h 3104.5 c 40.6,0 73.5,-32.9 73.5,-73.5 v -7.1 c 0,-40.6 -32.9,-73.5 -73.5,-73.5"
         style="fill:#eaebec;fill-opacity:1;fill-rule:nonzero;stroke:none"
         id="path158" />
      <path
         d="m 18389.6,10996.9 h -1910.2 c -40.6,0 -73.5,32.9 -73.5,73.5 v 7.1 c 0,40.6 32.9,73.5 73.5,73.5 h 1910.2 c 40.6,0 73.5,-32.9 73.5,-73.5 v -7.1 c 0,-40.6 -32.9,-73.5 -73.5,-73.5"
         style="fill:#eaebec;fill-opacity:1;fill-rule:nonzero;stroke:none"
         id="path160" />
      <path
         d="M 20776.8,12610.8 H 8333.7 c -336.28,0 -608.9,272.6 -608.9,608.9 v 6714.7 c 0,336.3 272.62,608.9 608.9,608.9 h 12443.1 c 336.3,0 608.9,-272.6 608.9,-608.9 v -6714.7 c 0,-336.3 -272.6,-608.9 -608.9,-608.9"
         style="fill:#a8abb2;fill-opacity:1;fill-rule:nonzero;stroke:none"
         id="path162" />
      <path
         d="m 8711.6,20220.4 c -329.67,0 -597.89,-268.2 -597.89,-597.9 v -5934.9 c 0,-329.7 268.22,-597.9 597.89,-597.9 h 11677.5 c 329.7,0 597.9,268.2 597.9,597.9 v 5934.9 c 0,329.7 -268.2,597.9 -597.9,597.9 H 8711.6 M 20389.1,13067.6 H 8711.6 c -341.84,0 -619.94,278.1 -619.94,620 v 5934.9 c 0,341.8 278.1,619.9 619.94,619.9 h 11677.5 c 341.9,0 620,-278.1 620,-619.9 v -5934.9 c 0,-341.9 -278.1,-620 -620,-620"
         style="fill:#ffffff;fill-opacity:1;fill-rule:nonzero;stroke:none"
         id="path164" />
      <path
         d="m 16894,19520.8 h 577.3 c 19.5,0 35.4,-13.9 35.8,-31.2 l 5.6,-239.7 c 0.4,-19.5 20.4,-34.1 42,-30.7 l 1055,165.9 c 2,0.3 4.1,0.5 6.2,0.5 h 725.5 c 1.7,0 3.5,0.1 5.3,0.3 l 819.8,110.4 c 9.9,1.3 20.1,-1.1 27.9,-6.8 l 181.1,-131.4 c 15,-10.9 17.6,-30.4 5.8,-44.1 l -221.5,-256.9 c -6.4,-7.4 -8.8,-16.8 -6.7,-25.9 l 99,-421.1 c 1.6,-6.7 0.7,-13.7 -2.6,-20 l -340.9,-651.2 c -11.2,-21.5 -44.1,-24.9 -60.6,-6.2 l -202.3,229.2 c -6.6,7.4 -9.1,16.9 -7,26.1 l 85.2,371.2 c 7.3,31.8 -37.3,51.8 -61.7,27.7 l -214.1,-211.8 c -4,-4 -9.2,-7 -14.9,-8.8 l -248.7,-76.6 c -8.5,-2.6 -15.6,-8 -19.9,-15.1 l -121.5,-204 c -11.7,-19.6 2.1,-43.5 26.7,-46.5 l 280.3,-34.1 c 17,-2 30,-14.6 30.9,-29.8 l 38.6,-651.9 c 0.6,-10.1 -4.3,-20 -13.2,-26.4 l -263.6,-190 c -12.1,-8.8 -16.5,-23.6 -10.7,-36.5 l 61.2,-136.9 c 8.9,-19.9 -6.5,-41.9 -30.6,-43.5 l -71.9,-4.9 c -12.1,-0.8 -23.8,3.8 -31.2,12.4 l -205.9,239.9 c -17.9,20.9 -54.8,14.6 -62.9,-10.6 l -21.4,-67.1 c -2.5,-7.8 -1.6,-16.2 2.6,-23.4 l 201.3,-345.1 c 7.1,-12.2 4.7,-27 -6,-36.8 l -353,-324.9 c -17,-15.7 -42.4,-21.7 -65.9,-15.8 l -62.5,15.6 c -34.7,8.7 -70.9,-8.7 -81.6,-39.3 -6.4,-18.1 -2.6,-37.7 10,-53 l 182,-218.6 c 20,-24 16.8,-57.4 -7.4,-78.1 l -99.9,-85.2 c -26,-22.2 -67.1,-21.9 -92.7,0.5 l -559.8,488.7 c -26.1,22.8 -68.1,22.6 -93.9,-0.6 l -299,-268.3 c -8.8,-7.9 -14.9,-17.9 -17.7,-28.8 l -24.5,-97.5 c -12.3,-49 -83.3,-63 -117.7,-23.2 l -470.6,544.3 c -12.7,14.7 -31.3,24.4 -51.9,27.1 l -323.8,41.6 c -9.3,1.2 -18.3,3.8 -26.6,7.8 l -133.8,64.4 c -37.2,17.9 -78.7,-16.6 -61.2,-50.9 l 30.5,-59.8 c 11.2,-22 34.1,-37.4 60.8,-41 l 225.5,-30.5 c 28.6,-3.9 52.6,-21.2 62.8,-45.3 l 11.2,-26.3 c 13.3,-31.4 0.1,-66.9 -31.7,-85 l -498.1,-284.5 c -22.4,-12.7 -52.2,-5.2 -63.7,16.1 l -301.4,560.2 c -9.8,18.2 -33.7,26.9 -55.1,19.9 -24.5,-8 -35.9,-33.1 -24.6,-54 l 256.3,-474.1 c 43.3,-80.2 144.1,-122.1 240.9,-100.3 l 42.2,9.5 c 61.1,13.8 115.2,-37.8 95.7,-91.1 l -63.3,-172.7 c -4.8,-13.1 -13.8,-24.7 -25.9,-33.4 l -228.7,-163.8 c -52.9,-37.9 -82,-96.3 -78,-156.7 l 12.5,-190.5 c 3.8,-56.6 -21.6,-111.8 -69,-149.8 l -92,-73.8 c -39.8,-31.9 -59.8,-79 -53.8,-126.3 l 4.9,-38.6 c 6,-46.8 -13.5,-93.3 -52.5,-125.3 l -349.1,-285.8 c -39.6,-32.4 -94.4,-45.8 -147,-35.8 l -68.1,13 c -57.3,10.9 -104,47.9 -122.7,97.3 l -195.8,517.9 c -21.1,55.9 -2.8,117.7 46.6,157.1 48.8,38.9 67.3,99.7 47.2,155.2 l -108.3,300.4 c -37.9,104.8 -159.6,166.4 -280.1,141.8 l -276.1,-56.4 c -22.7,-4.6 -46.6,0.8 -64,14.6 l -390.8,308.4 c -15.5,12.2 -24.3,29.7 -24.3,48.1 v 361.2 c 0,97.2 38.7,191.3 109.4,265.5 l 47.6,50 c 88.4,92.8 213.2,152.2 349.1,165.9 l 279.8,28.3 188.9,21.8 c 37.3,4.3 72,-17.6 79.9,-50.3 l 13.2,-55 c 4.7,-19.5 19.3,-35.9 39.6,-44.5 l 271.2,-114.9 33.1,110.7 494.9,-49.2 7.4,127.3 c 1.1,19.4 -14,36.7 -35.4,40.6 l -211.6,37.8 -89.7,171.5 -160.7,33.9 72.2,-209.8 -127,137.1 -176.6,160.8 c -25.3,23 -65.9,25.8 -94.9,6.6 -34.8,-23.2 -38.9,-68.1 -8.9,-96 l 164,-152.3 -96.4,-0.3 c -17.7,0 -34.7,5.7 -48,16.1 l -191.8,150.3 c -29.7,23.2 -74.9,20.9 -101.4,-5.3 l -157,-155 c -10.7,-10.6 -25.1,-17.7 -40.8,-20.2 l -126.1,-20.3 c -39,-6.3 -76.4,16.5 -83.8,51.2 l -27.1,126.5 c -8.9,41.5 29,79.3 76.4,76.1 l 91.4,-6.2 c 52,-3.6 90.9,41.6 73.6,85.4 l -42.3,107.2 c -10.9,27.5 0.4,58 27.5,74.5 l 315.5,191.2 477.5,34.5 91.3,275.1 -122.3,39.1 43.2,244 -91.7,-9 -112.2,-204.8 8.7,-226.1 -140.7,-47.6 -75.3,172.4 -117.7,-67.7 -63.1,224.4 c -0.6,2.1 -0.1,4.3 1.2,6 l 470.1,584.1 626.3,-164.9 7.1,-99.3 -161.9,-65.5 -9.1,-153.2 264.1,189.8 376.4,185.5 7.8,120.9 170,1 c 6.9,0 13.6,-1.7 19.4,-5 l 63.6,-35.9 c 28.6,-16.2 64.1,8.8 53,37.4 l -71.5,183.5 c -3.7,9.6 -2.1,20.3 4.5,28.6 l 61.1,77.8 c 7.4,9.5 20,14.6 33,13.4 l 155,-14.2 c 6.6,-0.7 12.9,-2.9 18.1,-6.5 l 19.5,-13.3 c 29.6,-20.2 69.9,8.3 54.4,38.5 -9.5,18.6 2.8,40.2 25.3,44.4 l 72.3,13.3 c 30.7,5.6 39,41.2 13.4,57.3 l -37.7,23.6 c -18.8,11.8 -20.4,36.2 -3.3,49.8 l 182.3,145.2 c 3.2,2.6 7,4.6 11,6 l 152.9,52.4 c 19.9,6.8 28.7,27.5 18.9,44.4 l -14.4,24.8 c -7.8,13.3 -24.8,20 -41.1,16.2 l -143.1,-34.1 c -23.5,-5.6 -46.2,10.8 -45,32.4 l 2.9,49.8 c 1,16.9 16.7,30.2 35.8,30.2"
         style="fill:#efeff4;fill-opacity:1;fill-rule:evenodd;stroke:none"
         id="path166" />
      <path
         d="m 19464,15188.6 -331.8,-109.3 c -14.8,-4.9 -27.2,-14.3 -34.9,-26.5 l -97,-153.5 c -8.7,-13.8 -23.3,-23.9 -40.4,-28.1 l -297.8,-72.9 c -32,-7.8 -52.6,-35.5 -48.3,-64.8 l 56.3,-384.3 c 1.6,-10.9 -0.2,-22 -5.3,-32.1 l -44,-86.6 c -17.5,-34.5 5.4,-74.6 47.1,-82.4 l 54.5,-10.1 c 13.6,-2.5 27.7,-1.2 40.4,3.8 l 480.3,187.5 c 29.7,11.6 64.5,2.4 82.3,-21.7 l 112,-151.6 c 3.2,-4.4 7.1,-8.4 11.5,-11.9 l 174,-137 c 14.4,-11.3 33.5,-16.5 52.6,-14.4 l 280.1,32 c 32.5,3.7 57.2,27.9 58.1,57 l 4,120.5 c 0.4,11.6 4.6,22.8 12.1,32.3 l 171.8,217.8 c 7.8,9.9 12,21.8 12,34 v 167.6 c 0,16 -7.2,31.3 -20.1,42.5 l -232.3,201.3 c -8.1,7 -14.1,15.8 -17.4,25.4 l -43,127.8 c -19,56.2 -108.3,56.4 -127.5,0.3 l -15.1,-44.3 c -13.5,-39.4 -67,-54.8 -103.9,-30 l -52.8,35.6 c -25.3,17.1 -33.6,47.8 -19.6,73.3 l 0.7,1.2 c 15,27.2 4.5,60.1 -24.4,76.2 l -35.6,19.9 c -17.5,9.8 -39.2,11.8 -58.6,5.5"
         style="fill:#efeff4;fill-opacity:1;fill-rule:evenodd;stroke:none"
         id="path168" />
      <path
         d="m 19379.4,15563.2 -7.2,-21.5 c -7.8,-23.3 1.1,-48.4 22.5,-63.4 l 191.4,-134.7 c 8.3,-5.9 18.1,-9.8 28.5,-11.7 l 361.7,-63.4 c 3.7,-0.6 7.3,-1.5 10.7,-2.7 l 47.2,-15.9 c 59.1,-19.9 113.2,37.7 80.7,85.9 l -19,28.2 c -7.5,11.1 -18.8,19.7 -32.3,24.5 l -595.6,212.7 c -36.3,13 -77.4,-4.6 -88.6,-38"
         style="fill:#efeff4;fill-opacity:1;fill-rule:evenodd;stroke:none"
         id="path170" />
      <path
         d="m 18792.7,15797.9 c -47.1,-47.2 -110.6,-110.2 -146.5,-145.8 -16.9,-16.8 -21.6,-40.7 -12.2,-61.7 l 79.9,-177 c 12.4,-27.6 45.8,-42.7 78.1,-35.4 l 121.6,27.4 c 22.7,5.1 40.7,20.5 47.5,40.5 l 47.7,142.4 c 5.4,15.9 3,33 -6.5,47.3 -23.1,34.2 -68.2,101.4 -102.9,153.1 -23,34.4 -76.8,39.1 -106.7,9.2"
         style="fill:#efeff4;fill-opacity:1;fill-rule:evenodd;stroke:none"
         id="path172" />
      <path
         d="m 18177,15771.4 277,-309.9 c 0.9,-0.9 1.8,-1.8 2.7,-2.8 l 170.5,-168.1 c 11.5,-11.3 27.5,-18.3 44.7,-19.4 l 326.4,-20.7 -1.9,-5.5 c -8.4,-23.6 -32.4,-40.1 -60.2,-41.3 l -456,-20.3 c -23.4,-1.1 -45.8,9 -58.8,26.5 l -360.6,484.8 c -17.9,24.1 -13.7,56.3 10.1,76 l 8.6,7.1 c 28.4,23.6 73.3,20.6 97.5,-6.4"
         style="fill:#efeff4;fill-opacity:1;fill-rule:evenodd;stroke:none"
         id="path174" />
      <path
         d="m 11553.6,16036.9 -82.3,-107.4 c -11.4,-14.8 -31.8,-22 -51.6,-18.1 l -155,30.7 c -22.6,4.5 -38.7,22.3 -38.7,42.9 v 98.5 c 0,23.6 -20.9,43 -47.4,43.9 l -89.4,3.3 c -36.4,1.4 -58.8,36.1 -41.6,64.7 l 95.9,160 -150.6,44.1 c 0,0 -113.2,-164 -135.9,-164.8 -22.7,-0.8 -172.2,206.3 -172.2,206.3 l 186.8,212.1 288.3,7.6 138.2,-177.3 85.9,287 320.9,217.2 634.1,400.8 c 4.5,2.8 8.2,6.8 10.5,11.3 l 117.9,228.3 c 5.3,10.1 3.4,22 -4.7,30.4 l -188.6,196.9 c -4.3,4.4 -6.9,10 -7.5,15.8 l -11.4,107.2 c -3,28.1 -45,35.8 -60.2,11.1 -11,-18 -39,-20.1 -53.3,-4.1 l -127.3,142.8 c -27.6,31 -80.2,31.5 -108.6,1.1 l -160.9,-172.9 c -4.5,-4.9 -8.2,-10.3 -10.9,-16.2 l -70.1,-152.8 c -23,-50.1 -101.9,-52 -127.9,-3.1 l -3.8,7.1 c -6.9,13 -18.5,23.4 -33,29.6 -69.6,29.4 -277.8,120.6 -279.1,158.2 -1.3,38.9 138.5,254.4 176.7,312.4 6.3,9.5 15.2,17.3 26,22.7 l 269.8,135.2 c 1.1,0.5 2.2,1.1 3.4,1.6 l 255.2,111.8 c 25.2,11.1 40.5,34.4 38.9,59.4 l -3.9,60.8 c -2.4,38.4 -43.2,65.7 -85.4,57.1 l -122.7,-25 c -11.9,-2.4 -22.9,-7.6 -31.9,-15 l -54.7,-45.2 c -33.5,-27.7 -87.4,-19.7 -109.1,16.1 l -77,127.5 c -19.9,32.8 -67.5,42.8 -101.8,21.4 l -104,-64.9 c -17.4,-10.9 -39.5,-14.1 -60,-8.7 l -353.3,93.2 c -7.1,1.9 -13.8,4.8 -19.9,8.6 l -303,186.9 c -16.8,10.4 -37.9,13.7 -57.7,9.1 l -237.6,-55.9 c -22.5,-5.3 -46.5,-0.3 -64,13.4 l -410.77,321.2 c -17.62,13.8 -41.63,18.9 -64.27,13.4 -76.8,-18.6 -255.94,-60.9 -330.31,-69.9 -75.09,-9.1 -156.33,-98.5 -188.11,-136.9 -8.67,-10.5 -9.69,-24.3 -2.78,-35.8 l 34.85,-57.7 c 12.27,-20.4 -1.59,-45.4 -27.18,-49.2 l -127.62,-18.6 c -26.41,-3.9 -40.08,-30.3 -26.2,-50.7 l 30.16,-44.2 c 4.81,-7.1 6.53,-15.5 4.84,-23.6 l -23.08,-110.9 c -3.93,-18.9 -24.82,-31.1 -45.84,-26.7 l -122.36,25.7 c -24.64,5.1 -47.92,-12.3 -46.4,-34.8 l 11.55,-171.4 c 0.46,-6.8 3.24,-13.3 7.97,-18.7 l 102.22,-116.2 c 13.92,-15.9 9.34,-38.9 -9.93,-49.4 -99.87,-54.4 -370.97,-201.9 -344.27,-184.8 32.67,20.8 330.9,-3.9 333.35,41.9 2.44,45.7 200.29,89.8 213.99,105.7 10.3,12 84.82,108.9 121.26,156.3 11.24,14.7 33.3,19 50.45,10 l 301.79,-158.8 c 19.3,-10.2 31.95,-28 34.03,-47.8 l 34.28,-328 c 0.96,-9.2 4.21,-18.1 9.51,-26 l 129.44,-193.8 149.03,-245.6 c 9.3,-15.4 11,-33.5 4.5,-49.9 l -80.41,-206.8 c -60.61,-155.7 -46.18,-326.8 39.79,-472.8 70.02,-118.8 141.82,-241.8 145.92,-253 1.4,-3.6 5.7,-10.3 12,-18.9 61,-83.9 148.1,-150.2 248.9,-194.1 l 468.3,-203.9 c 2,-0.9 4,-1.9 5.9,-3.1 l 344.9,-207.1 c 3.3,-1.9 6.4,-4.3 9,-6.9 l 57.9,-56.9 c 11.3,-11.2 28.3,-16.4 45,-13.9 38.7,5.9 69.4,-28.9 53.6,-60.9 l -90.4,-184.6 c -3.7,-7.5 -4.9,-15.8 -3.6,-23.9 l 59.1,-359.6 c 1.7,-9.8 6.9,-18.8 15,-25.6 l 246,-206.6 c 7.3,-6.1 12.3,-14.1 14.4,-22.8 l 86.8,-360.9 c 0.5,-2.2 0.8,-4.3 1,-6.5 l 71.1,-995.7 c 0.9,-13 8.3,-25.1 20.2,-32.8 l 228.4,-147.7 c 9.5,-6.1 21,-9 32.7,-8.3 l 78.9,5.1 c 42.4,2.7 61.4,48.8 31,75.3 l -76.6,66.8 c -8.7,7.6 -14,17.8 -14.7,28.7 l -6.4,94.4 -0.1,2.6 v 173.3 c 0,2.7 0.2,5.4 0.8,8.1 l 27.8,132.9 0.5,2.5 13.4,92.9 c 2.2,15.4 13.3,28.6 29.3,34.8 l 194.7,75.1 c 25.2,9.7 36.6,35.9 25.5,58.2 l -25.5,51 c -12.4,24.9 3.3,53.7 32.9,60.5 l 76.4,17.4 c 12.3,2.8 22.9,9.7 29.7,19.3 l 157.4,224.6 c 10.6,15 9.9,34.2 -1.6,48.7 l -3.3,4.1 c -20.6,25.9 -4.6,62.2 30.4,68.6 l 88.3,16.1 c 17.6,3.3 32,14.8 37.3,30.2 l 127.7,369.7 c 2,5.8 5.3,11.1 9.7,15.7 l 182.9,189.7 c 19,19.8 14.7,49.8 -9.2,64.7 l -252.8,157.1 c -8.9,5.6 -19.7,8.4 -30.7,7.9 l -181,-7.8 c -11.9,-0.5 -23.5,2.8 -32.9,9.3 l -109,76 c -11.6,8 -18.5,20.3 -19,33.4 l -3.7,118.8 c -0.6,19 -14.8,35.5 -35.3,40.9 l -221.5,58.9 c -6,1.6 -11.6,4.2 -16.5,7.7 l -138.1,97.4 c -14,9.9 -32.9,12.3 -49.5,6.2 l -111.4,-40.8 c -13.5,-4.9 -28.7,-4.3 -41.7,1.7 l -216.6,100.3 c -22.2,10.3 -49.5,4.2 -63.6,-14.2"
         style="fill:#efeff4;fill-opacity:1;fill-rule:evenodd;stroke:none"
         id="path176" />
      <path
         d="m 11747,18907.3 28.2,124.3 c 5.8,25.2 28.2,44.6 56.7,49 l 203,31.2 c 15.9,2.4 32.2,-0.1 46.3,-7.1 l 251,-126.1 c 16.9,-8.5 21.5,-28.3 9.8,-42.1 l -99.6,-118 c -8.3,-9.8 -8.6,-23.2 -0.7,-33.3 l 143.5,-185.3 c 4.4,-5.7 6.4,-12.5 5.5,-19.3 l -26,-214.3 c -0.5,-4.2 -2,-8.3 -4.5,-11.9 l -78.8,-114.5 c -7.3,-10.5 -21.3,-15.7 -34.8,-12.8 l -216.8,45.4 c -3.5,0.7 -6.9,1.7 -10.2,2.9 l -19.6,7 c -55.9,20.2 -58.7,89.8 -4.6,113.5 l 40.5,17.7 c 27,11.9 42.4,37.6 38.4,64.1 -8.3,54.3 -23.4,141.8 -37.5,166.2 -12.4,21.4 -20.5,72.5 -25,110.5 -3.2,27.5 -26.4,49.7 -56.9,54.6 l -152,24.8 c -38.4,6.2 -63.6,39.4 -55.9,73.5"
         style="fill:#efeff4;fill-opacity:1;fill-rule:evenodd;stroke:none"
         id="path178" />
      <path
         d="m 10873,19300.2 -92.9,-68.7 c -29,-21.4 -33.7,-59.4 -10.7,-85.9 l 89.6,-103.3 c 1.6,-1.9 3.1,-3.8 4.4,-5.8 l 117.1,-171.7 c 8,-11.8 20.3,-20.9 34.7,-25.8 l 109.7,-37.4 c 24,-8.2 51,-4 70.5,10.9 l 76.1,58.1 c 6.9,5.2 12.6,11.6 16.7,18.8 l 88.2,153.2 c 5.1,8.8 7.7,18.6 7.7,28.6 -0.2,55.4 -75.6,82.9 -119.5,43.6 l -4.7,-4.2 c -28,-25 -73.8,-24.3 -100.8,1.6 l -190.2,182.4 c -25.2,24.2 -67.3,26.7 -95.9,5.6"
         style="fill:#efeff4;fill-opacity:1;fill-rule:evenodd;stroke:none"
         id="path180" />
      <path
         d="m 12782.9,19594.2 -336.6,-243.9 c -10.4,-7.5 -14.5,-20 -10.2,-31.3 l 64.3,-169.2 c 3.3,-8.8 11.3,-15.6 21.3,-18.2 l 189.3,-49.5 c 15.5,-4 26.7,-15.9 28.6,-30.1 l 50.4,-378 c 0.8,-5.8 0,-11.7 -2.4,-17.1 l -113.5,-262.2 c -3,-7.1 -3.5,-14.9 -1.3,-22.2 l 95.6,-317.2 c 3.1,-10.3 11.3,-18.9 22.2,-23.3 l 77.8,-31.7 c 19.2,-7.8 41.9,-1.1 52,15.4 l 154.8,251.3 c 3.8,6.3 9.6,11.3 16.7,14.6 l 256.4,118.3 c 3.2,1.5 6.2,3.4 8.8,5.6 l 375.6,310.3 c 6,5 10.1,11.4 11.9,18.5 l 131.8,525.1 c 1.3,5.4 4.1,10.4 8,14.7 l 206.9,226.8 c 9,9.8 11.4,23.1 6.5,35 l -24,58 c -7.9,19.2 -32.2,28.5 -53.4,20.6 l -115.8,-43.6 c -7.2,-2.7 -15,-3.5 -22.6,-2.3 l -71.5,11.1 c -42.8,6.6 -45.1,60.5 -3,70 31.2,7 40.9,42.2 16.9,61.3 l -25.6,20.4 c -2.3,1.9 -4.4,3.9 -6.1,6.2 l -91.9,117 c -7.6,9.6 -19.9,15.3 -33,15.3 h -258.7 c -10.7,0 -21,-3.8 -28.5,-10.6 l -145.5,-130.3 c -9.3,-8.4 -13.4,-20.3 -11,-31.9 l 14.8,-69.2 c 6,-27.8 -24.8,-50.4 -54.3,-40 l -82.2,29.1 c -9.2,3.2 -16.8,9.4 -21.2,17.4 l -24,43.3 c -9.9,17.8 -34.2,25 -54.1,16.1 l -212.9,-95.4 c -2.6,-1.2 -5,-2.6 -7.3,-4.2"
         style="fill:#efeff4;fill-opacity:1;fill-rule:evenodd;stroke:none"
         id="path182" />
      <path
         d="m 12167.4,19826.5 407.2,97 c 5.1,1.3 10.5,1.3 15.7,0.2 l 363.5,-77.1 c 33.5,-7.1 42.1,-46 14,-63.9 l -53.5,-34 -1.9,-1.3 -494.3,-355.7 -221,-161.6 c -15.8,-11.6 -36.6,-16.4 -56.7,-13.2 l -219.2,34.9 c -22.3,3.6 -45,-2.7 -61.2,-16.7 l -67.8,-59 c -33.8,-29.4 -89.8,-21.2 -111.2,16.3 l -30.1,52.6 c -1.2,2.2 -2.3,4.4 -3.3,6.7 l -23.2,56.1 c -13.4,32.4 5.4,68.3 41.8,80 l 133.4,43.1 c 16.9,5.5 35.4,5 51.8,-1.4 l 101.2,-39.3 c 17.7,-6.8 37.7,-6.9 55.4,-0.1 l 2.3,0.8 c 43.2,16.5 56.3,65.4 25.9,97.4 l -26.1,27.5 c -18.2,19.2 -21.6,46.3 -8.7,68.6 l 122,210.5 c 9,15.5 25,27 44,31.6"
         style="fill:#efeff4;fill-opacity:1;fill-rule:evenodd;stroke:none"
         id="path184" />
      <path
         d="m 11176.6,19564.7 148.3,35.4 c 40.5,9.7 81.4,-14.3 87.3,-51.3 l 22,-137 c 4.4,-27.9 -12.7,-55 -41.9,-66 l -125.5,-47.6 c -39.2,-14.8 -84,4.7 -95,41.3 l -44.6,149.1 c -9.9,33.1 12.2,67.2 49.4,76.1"
         style="fill:#efeff4;fill-opacity:1;fill-rule:evenodd;stroke:none"
         id="path186" />
      <path
         d="m 11666.8,18896.9 c 0,-507.4 -411.2,-918.7 -918.6,-918.7 -507.3,0 -918.63,411.3 -918.63,918.7 0,507.3 411.33,918.6 918.63,918.6 507.4,0 918.6,-411.3 918.6,-918.6"
         style="fill:#5c5e61;fill-opacity:1;fill-rule:nonzero;stroke:none"
         id="path188" />
      <path
         d="M 11665.2,18985.4 H 9829.57 c 0,0 -73.14,-529.5 746.73,-1926.1 35.8,-60.9 101.1,-107.2 171.8,-107.2 70.7,0 136.1,50.5 171.9,111.4 819.8,1396.7 745.2,1921.9 745.2,1921.9"
         style="fill:#5c5e61;fill-opacity:1;fill-rule:nonzero;stroke:none"
         id="path190" />
      <path
         d="m 9854.64,18919.3 c -0.22,0 0.2,-40.7 2.62,-70.3 l 0.06,-3.6 c 3.05,-63.2 12.83,-126 29.9,-189 l 0.31,-2 c 61.96,-284.9 235.77,-795 711.77,-1605.9 30.7,-52.2 102.4,-84.8 163.5,-84.9 l 14.8,-26.8 v 26.7 c 22.1,0 108.6,32.7 139.5,85.3 468,797.5 632.2,1304.3 698.3,1589 v 1.6 c 22.1,81.4 29,166 29,251.5 l -6.9,3.7 v 0.3 c 0,26.6 0.5,41 0,44.8 l 0.6,1.5 c -26.1,469.5 -416.9,837.3 -890.2,837.3 -472.4,0 -863.36,-365.7 -890.29,-839.3 l -1.26,-19.9 h -1.71 m 922.96,-2006.8 v 0.5 h -29.5 c -80,0 -154.6,41.1 -194.8,109.6 -479.2,816.3 -654.84,1331.1 -717.74,1619.9 -17.94,66.4 -28.25,130.9 -31.5,197.6 -5.55,68.3 -1.3,96.8 -0.8,99.8 l 2.41,14.5 c 37.02,493.5 447.73,877.5 942.53,877.5 501.3,0 915.7,-389.6 943.8,-887 0.7,-6.5 2,-23 1.5,-50.6 v -3.4 c 0,-90.2 -12.7,-179.6 -37.9,-265.7 -65,-288.5 -226.8,-799.6 -697.9,-1602.2 -40.4,-68.9 -136,-110.5 -180.1,-110.5"
         style="fill:#ffffff;fill-opacity:1;fill-rule:nonzero;stroke:none"
         id="path192" />
      <path
         d="m 11274.7,18985.4 h -1047.1 c 40.9,252.3 259.8,444.9 523.6,444.9 263.8,0 482.6,-192.6 523.5,-444.9"
         style="fill:#dedfdf;fill-opacity:1;fill-rule:nonzero;stroke:none"
         id="path194" />
      <path
         d="m 10751.2,18369.4 c -293,0 -530.5,237.5 -530.5,530.4 0,29.2 2.4,57.8 6.9,85.6 h 520.6 526.5 c 4.6,-27.8 6.9,-56.4 6.9,-85.6 0,-292.9 -237.5,-530.4 -530.4,-530.4"
         style="fill:#dedfdf;fill-opacity:1;fill-rule:nonzero;stroke:none"
         id="path196" />
      <path
         d="m 10751.2,19400.6 c -276.2,0 -500.8,-224.6 -500.8,-500.8 0,-276.1 224.6,-500.8 500.8,-500.8 276.1,0 500.8,224.7 500.8,500.8 0,276.2 -224.7,500.8 -500.8,500.8 z m 0,-1060.8 c -308.9,0 -560.1,251.2 -560.1,560 0,308.9 251.2,560.1 560.1,560.1 308.8,0 560,-251.2 560,-560.1 0,-308.8 -251.2,-560 -560,-560"
         style="fill:#a8abb2;fill-opacity:1;fill-rule:nonzero;stroke:none"
         id="path198" />
      <path
         d="m 10248,19452.1 c -2.5,0 -5,1.1 -6.7,3.1 -3.2,3.7 -2.8,9.3 0.9,12.5 149,128 339.4,198.5 536.1,198.5 4.9,0 8.9,-4 8.9,-8.9 0,-4.9 -4,-8.9 -8.9,-8.9 -192.5,0 -378.7,-69 -524.5,-194.1 -1.7,-1.5 -3.8,-2.2 -5.8,-2.2"
         style="fill:#888b8f;fill-opacity:1;fill-rule:nonzero;stroke:none"
         id="path200" />
      <path
         d="m 9963.96,18834.1 c -4.92,0 -8.9,4 -8.9,8.9 0,153.6 42.59,303.4 123.14,433.3 2.6,4.2 8.1,5.5 12.3,2.9 4.1,-2.6 5.4,-8.1 2.8,-12.3 -78.8,-127 -120.46,-273.6 -120.46,-423.9 0,-4.9 -3.97,-8.9 -8.88,-8.9"
         style="fill:#888b8f;fill-opacity:1;fill-rule:nonzero;stroke:none"
         id="path202" />
      <path
         d="m 16142.5,17221.3 c 0,-507.4 -411.3,-918.7 -918.6,-918.7 -507.4,0 -918.7,411.3 -918.7,918.7 0,507.3 411.3,918.6 918.7,918.6 507.3,0 918.6,-411.3 918.6,-918.6"
         style="fill:#5c5e61;fill-opacity:1;fill-rule:nonzero;stroke:none"
         id="path204" />
      <path
         d="m 16140.8,17309.8 h -1835.6 c 0,0 -73.1,-529.5 746.8,-1926.1 35.7,-60.9 101.1,-107.2 171.7,-107.2 70.7,-0.1 136.2,50.5 171.9,111.4 819.8,1396.7 745.2,1921.9 745.2,1921.9"
         style="fill:#5c5e61;fill-opacity:1;fill-rule:nonzero;stroke:none"
         id="path206" />
      <path
         d="m 14330.3,17243.7 c -0.2,0 0.2,-40.7 2.6,-70.3 l 0.1,-3.6 c 3,-63.2 12.8,-126 29.9,-189 l 0.3,-2 c 61.9,-284.9 235.7,-795.1 711.8,-1605.9 30.6,-52.2 102.3,-84.8 163.5,-84.9 l 14.8,-26.8 v 26.7 c 22,0 108.5,32.7 139.4,85.3 468.1,797.5 632.2,1304.2 698.4,1589 v 1.6 c 22,81.4 29,166 29,251.5 l -7,3.7 v 0.3 c 0,26.6 0.5,41 0.1,44.8 l 0.5,1.5 c -26.1,469.5 -416.9,837.3 -890.2,837.3 -472.4,0 -863.3,-365.7 -890.2,-839.4 l -1.3,-19.8 h -1.7 m 923,-2006.8 v 0.5 h -29.6 c -79.9,0 -154.6,41.1 -194.7,109.5 -479.3,816.4 -654.9,1331.2 -717.8,1620 -17.9,66.4 -28.2,130.9 -31.5,197.6 -5.5,68.3 -1.3,96.8 -0.8,99.8 l 2.4,14.5 c 37,493.5 447.7,877.4 942.6,877.4 501.3,0 915.7,-389.5 943.7,-886.9 0.7,-6.5 2.1,-23 1.5,-50.6 l 0.1,-3.4 c 0,-90.3 -12.8,-179.6 -37.9,-265.7 -65.1,-288.5 -226.9,-799.6 -697.9,-1602.2 -40.5,-68.9 -136.1,-110.5 -180.1,-110.5"
         style="fill:#ffffff;fill-opacity:1;fill-rule:nonzero;stroke:none"
         id="path208" />
      <path
         d="m 15750.4,17309.8 h -1047.2 c 41,252.3 259.8,444.9 523.6,444.9 263.8,0 482.7,-192.6 523.6,-444.9"
         style="fill:#dedfdf;fill-opacity:1;fill-rule:nonzero;stroke:none"
         id="path210" />
      <path
         d="m 15226.8,16693.8 c -292.9,0 -530.4,237.5 -530.4,530.4 0,29.2 2.3,57.7 6.8,85.6 h 520.7 526.5 c 4.5,-27.9 6.9,-56.4 6.9,-85.6 0,-292.9 -237.5,-530.4 -530.5,-530.4"
         style="fill:#dedfdf;fill-opacity:1;fill-rule:nonzero;stroke:none"
         id="path212" />
      <path
         d="m 15226.8,17725 c -276.1,0 -500.8,-224.6 -500.8,-500.8 0,-276.1 224.7,-500.8 500.8,-500.8 276.2,0 500.8,224.7 500.8,500.8 0,276.2 -224.6,500.8 -500.8,500.8 z m 0,-1060.9 c -308.8,0 -560.1,251.3 -560.1,560.1 0,308.9 251.3,560.1 560.1,560.1 308.8,0 560.1,-251.2 560.1,-560.1 0,-308.8 -251.3,-560.1 -560.1,-560.1"
         style="fill:#a8abb2;fill-opacity:1;fill-rule:nonzero;stroke:none"
         id="path214" />
      <path
         d="m 14723.6,17776.5 c -2.5,0 -4.9,1 -6.7,3.1 -3.2,3.7 -2.8,9.3 1,12.5 149,128 339.3,198.5 536,198.5 4.9,0 8.9,-4 8.9,-8.9 0,-4.9 -4,-8.9 -8.9,-8.9 -192.4,0 -378.7,-69 -524.5,-194.2 -1.6,-1.4 -3.7,-2.1 -5.8,-2.1"
         style="fill:#888b8f;fill-opacity:1;fill-rule:nonzero;stroke:none"
         id="path216" />
      <path
         d="m 14439.6,17158.5 c -4.9,0 -8.9,3.9 -8.9,8.9 0,153.6 42.6,303.4 123.2,433.3 2.6,4.2 8,5.5 12.2,2.9 4.2,-2.6 5.5,-8.1 2.9,-12.3 -78.9,-127 -120.5,-273.6 -120.5,-423.9 0,-5 -4,-8.9 -8.9,-8.9"
         style="fill:#888b8f;fill-opacity:1;fill-rule:nonzero;stroke:none"
         id="path218" />
      <path
         d="m 19207.1,20329.9 c 0,-507.3 -411.3,-918.6 -918.6,-918.6 -507.4,0 -918.7,411.3 -918.7,918.6 0,507.4 411.3,918.7 918.7,918.7 507.3,0 918.6,-411.3 918.6,-918.7"
         style="fill:#5c5e61;fill-opacity:1;fill-rule:nonzero;stroke:none"
         id="path220" />
      <path
         d="m 19205.4,20418.5 h -1835.6 c 0,0 -73.1,-529.5 746.8,-1926.1 35.7,-61 101.1,-107.2 171.7,-107.2 70.7,-0.1 136.2,50.5 172,111.4 819.7,1396.7 745.1,1921.9 745.1,1921.9"
         style="fill:#5c5e61;fill-opacity:1;fill-rule:nonzero;stroke:none"
         id="path222" />
      <path
         d="m 17394.9,20352.4 c -0.2,0 0.2,-40.7 2.6,-70.3 l 0.1,-3.6 c 3,-63.2 12.8,-126 29.9,-189 l 0.3,-2 c 61.9,-284.9 235.7,-795.1 711.8,-1605.9 30.6,-52.2 102.3,-84.8 163.5,-84.9 l 14.8,-26.8 v 26.7 c 22,0 108.5,32.7 139.4,85.3 468.1,797.5 632.2,1304.2 698.4,1589 v 1.6 c 22,81.4 29,166 29,251.5 l -7,3.7 v 0.3 c 0,26.6 0.5,41 0.1,44.8 l 0.5,1.5 c -26.1,469.5 -416.9,837.3 -890.2,837.3 -472.3,0 -863.3,-365.7 -890.2,-839.3 l -1.3,-19.9 h -1.7 m 923,-2006.8 v 0.4 h -29.6 c -79.9,0 -154.6,41.2 -194.7,109.6 -479.3,816.4 -654.9,1331.2 -717.8,1620 -17.9,66.4 -28.2,130.8 -31.5,197.6 -5.5,68.3 -1.3,96.8 -0.8,99.8 l 2.4,14.5 c 37,493.5 447.7,877.4 942.6,877.4 501.3,0 915.7,-389.5 943.7,-886.9 0.7,-6.5 2.1,-23 1.5,-50.6 l 0.1,-3.4 c 0,-90.3 -12.8,-179.6 -37.9,-265.7 -65.1,-288.6 -226.9,-799.6 -697.9,-1602.2 -40.5,-68.9 -136,-110.5 -180.1,-110.5"
         style="fill:#ffffff;fill-opacity:1;fill-rule:nonzero;stroke:none"
         id="path224" />
      <path
         d="m 18815,20418.5 h -1047.1 c 40.9,252.3 259.7,444.9 523.5,444.9 263.8,0 482.7,-192.6 523.6,-444.9"
         style="fill:#dedfdf;fill-opacity:1;fill-rule:nonzero;stroke:none"
         id="path226" />
      <path
         d="m 18291.4,19802.5 c -292.9,0 -530.4,237.5 -530.4,530.4 0,29.2 2.3,57.7 6.9,85.6 h 520.6 526.5 c 4.5,-27.9 6.9,-56.4 6.9,-85.6 0,-292.9 -237.5,-530.4 -530.5,-530.4"
         style="fill:#dedfdf;fill-opacity:1;fill-rule:nonzero;stroke:none"
         id="path228" />
      <path
         d="m 18291.4,20833.7 c -276.1,0 -500.8,-224.6 -500.8,-500.8 0,-276.1 224.7,-500.8 500.8,-500.8 276.2,0 500.8,224.7 500.8,500.8 0,276.2 -224.6,500.8 -500.8,500.8 z m 0,-1060.8 c -308.8,0 -560.1,251.2 -560.1,560 0,308.8 251.3,560.1 560.1,560.1 308.9,0 560.1,-251.3 560.1,-560.1 0,-308.8 -251.2,-560 -560.1,-560"
         style="fill:#a8abb2;fill-opacity:1;fill-rule:nonzero;stroke:none"
         id="path230" />
      <path
         d="m 17788.3,20885.2 c -2.5,0 -5,1 -6.8,3.1 -3.2,3.7 -2.8,9.3 1,12.5 149,128 339.4,198.5 536,198.5 4.9,0 8.9,-4 8.9,-8.9 0,-4.9 -4,-8.9 -8.9,-8.9 -192.4,0 -378.7,-69 -524.5,-194.2 -1.6,-1.4 -3.7,-2.1 -5.7,-2.1"
         style="fill:#888b8f;fill-opacity:1;fill-rule:nonzero;stroke:none"
         id="path232" />
      <path
         d="m 17504.2,20267.2 c -4.9,0 -8.9,4 -8.9,8.9 0,153.6 42.6,303.4 123.2,433.3 2.6,4.2 8,5.5 12.2,2.9 4.2,-2.6 5.5,-8.1 2.9,-12.3 -78.8,-127 -120.5,-273.6 -120.5,-423.9 0,-4.9 -4,-8.9 -8.9,-8.9"
         style="fill:#888b8f;fill-opacity:1;fill-rule:nonzero;stroke:none"
         id="path234" />
      <path
         d="M 13111.7,14364.2 5858.28,14132 c -87.42,0.8 -158.41,-95.9 -157.75,-214.8 l 16.07,-2869.8 c 0.67,-119.7 73.53,-215.1 161.4,-211.6 l 7212.1,154.5 c 83.9,3.4 150.9,96.2 152,210.4 l 25.3,2947.5 c 1.1,118.3 -68.7,215.2 -155.7,216"
         style="fill:#74767b;fill-opacity:1;fill-rule:nonzero;stroke:none"
         id="path236" />
      <path
         d="m 5846.93,13932.8 8.91,-6.5 c -1.44,-2 -2.13,-4.5 -2.1,-7.6 l 16.05,-2869.8 c 0.03,-5.3 2.55,-8.4 3.52,-8.7 l 7212.29,154.5 c 0.7,0.2 3.2,3.2 3.3,8.6 l 25.3,2947.5 c 0,3.1 -0.7,5.6 -2.1,7.6 l -7254.42,-230.8 z m 26.5,-2914.6 c -14.4,0 -25.57,13.4 -25.68,30.6 l -16.07,2869.8 c -0.06,7.8 2.07,14.8 6.34,20.7 6.26,8.5 13.95,10.3 19.31,10.3 l 7253.07,232.1 c 8,0 14.8,-3.7 19.6,-10.5 4.2,-5.8 6.3,-12.8 6.2,-20.6 l -25.2,-2947.5 c -0.2,-16.8 -10.8,-29.9 -24.7,-30.4 h -0.2 l -7212.67,-154.5"
         style="fill:#ffffff;fill-opacity:1;fill-rule:nonzero;stroke:none"
         id="path238" />
      <path
         d="m 8216.42,12939.7 c 0,-472.6 -383.18,-855.8 -855.86,-855.8 -472.69,0 -855.87,383.2 -855.87,855.8 0,472.7 383.18,855.9 855.87,855.9 472.68,0 855.86,-383.2 855.86,-855.9"
         style="fill:#ffffff;fill-opacity:1;fill-rule:nonzero;stroke:none"
         id="path240" />
      <path
         d="m 10336.2,12939.7 c 0,-472.6 -383.23,-855.8 -855.91,-855.8 -472.68,0 -855.87,383.2 -855.87,855.8 0,472.7 383.19,855.9 855.87,855.9 472.68,0 855.91,-383.2 855.91,-855.9"
         style="fill:#ffffff;fill-opacity:1;fill-rule:nonzero;stroke:none"
         id="path242" />
      <path
         d="m 12463.2,12911.7 c 0,-472.6 -383.2,-855.8 -855.8,-855.8 -472.7,0 -855.9,383.2 -855.9,855.8 0,472.7 383.2,855.9 855.9,855.9 472.6,0 855.8,-383.2 855.8,-855.9"
         style="fill:#ffffff;fill-opacity:1;fill-rule:nonzero;stroke:none"
         id="path244" />
      <path
         d="m 7869.11,13120.6 c 26.49,-64.4 41.19,-134.9 41.19,-208.9 0,-303.6 -246.13,-549.7 -549.74,-549.7 -303.63,0 -549.75,246.1 -549.75,549.7 0,303.6 246.12,549.8 549.75,549.8 9.3,0 18.54,-0.3 27.73,-0.7 v 139.3 c -9.21,0.4 -18.44,0.6 -27.73,0.6 -380.53,0 -689.01,-308.4 -689.01,-689 0,-380.5 308.48,-689 689.01,-689 380.52,0 689,308.5 689,689 0,93.7 -18.73,183 -52.61,264.5 l -127.84,-55.6"
         style="fill:#a8abb2;fill-opacity:1;fill-rule:nonzero;stroke:none"
         id="path246" />
      <path
         d="m 9771.22,12446.6 c -84.81,-53.5 -185.21,-84.6 -292.91,-84.6 -303.63,0 -549.76,246.1 -549.76,549.7 0,303.6 246.13,549.8 549.76,549.8 9.3,0 18.54,-0.3 27.72,-0.7 v 139.3 c -9.2,0.4 -18.44,0.6 -27.72,0.6 -380.54,0 -689.01,-308.4 -689.01,-689 0,-380.5 308.47,-689 689.01,-689 132.8,0 256.8,37.6 362,102.7 l -69.09,121.2"
         style="fill:#a8abb2;fill-opacity:1;fill-rule:nonzero;stroke:none"
         id="path248" />
      <path
         d="m 12073.5,12602.6 c -99,-145.2 -265.7,-240.6 -454.7,-240.6 -303.6,0 -549.7,246.1 -549.7,549.7 0,303.6 246.1,549.8 549.7,549.8 9.3,0 18.6,-0.3 27.8,-0.7 v 139.3 c -9.2,0.4 -18.5,0.6 -27.8,0.6 -380.5,0 -689,-308.4 -689,-689 0,-380.5 308.5,-689 689,-689 235.4,0 443.2,118.1 567.5,298.3 l -112.8,81.6"
         style="fill:#a8abb2;fill-opacity:1;fill-rule:nonzero;stroke:none"
         id="path250" />
      <path
         d="M 8064.02,11721.3 H 6669.31 c -87.55,0 -158.51,-70.9 -158.51,-158.5 0,-87.5 70.96,-158.5 158.51,-158.5 h 1394.71 c 87.54,0 158.51,71 158.51,158.5 0,87.6 -70.97,158.5 -158.51,158.5"
         style="fill:#b9bcc5;fill-opacity:1;fill-rule:nonzero;stroke:none"
         id="path252" />
      <path
         d="M 10191.1,11721.3 H 8796.38 c -87.54,0 -158.5,-70.9 -158.5,-158.5 0,-87.5 70.96,-158.5 158.5,-158.5 h 1394.72 c 87.5,0 158.5,71 158.5,158.5 0,87.6 -71,158.5 -158.5,158.5"
         style="fill:#b9bcc5;fill-opacity:1;fill-rule:nonzero;stroke:none"
         id="path254" />
      <path
         d="m 10910,11404.3 h 1394.7 c 87.6,0 158.5,71 158.5,158.5 0,87.6 -70.9,158.5 -158.5,158.5 H 10910 c -87.5,0 -158.5,-70.9 -158.5,-158.5 0,-87.5 71,-158.5 158.5,-158.5"
         style="fill:#b9bcc5;fill-opacity:1;fill-rule:nonzero;stroke:none"
         id="path256" />
      <g
         id="g258">
        <g
           id="g260"
           clip-path="url(#clipPath264)">
          <path
             d="m 6269.62,6236.3 c 0,0 -710.14,-1547.8 -1082.73,-2188.9 0,0 -73.99,-403.3 0,-530.2 l 63.07,-28 -294.33,8.7 c 0,0 -26.14,542.6 -5.72,572.9 20.41,30.4 61.25,28.4 61.25,28.4 0,0 126.21,999.8 491.71,1213.2 l 354.21,1220 412.54,-296.1"
             style="fill:url(#linearGradient270);fill-opacity:1;fill-rule:nonzero;stroke:none"
             id="path272" />
        </g>
      </g>
      <path
         d="m 5375.66,3413.2 c 0.44,-7.1 -229.83,-3.9 -354.92,-1.6 -46.17,0.9 -85.55,33.3 -95.39,78.5 l -94.47,496.2 c -8.98,47.2 20.97,93 67.77,103.7 l 52.72,12.1 c 0,0 75.23,-103.2 51.55,-200.4 -23.68,-97.1 -44.75,-348.7 15.08,-378.1 59.84,-29.3 231.96,-34.4 231.96,-34.4 0,0 121.77,-12.1 125.7,-76"
         style="fill:#48494b;fill-opacity:1;fill-rule:nonzero;stroke:none"
         id="path274" />
      <path
         d="m 6942.72,3404.2 c 23.29,-13.3 13.68,-48.8 -13.13,-48.6 -209.32,2.1 -678.37,8.8 -720.05,26.1 -53.82,22.4 19.61,215.7 96.87,281.2 l 426.66,-139.3 209.65,-119.4"
         style="fill:#48494b;fill-opacity:1;fill-rule:nonzero;stroke:none"
         id="path276" />
      <g
         id="g278">
        <g
           id="g280"
           clip-path="url(#clipPath284)">
          <path
             d="m 7075.15,6335 c 0,0 -458.91,-2220 -588.72,-2653.1 l 307.1,-192.7 c 0,0 -153.9,26.2 -268.02,34.4 -114.12,8.3 -219.1,139.3 -219.1,139.3 l 36.79,58.7 c 0,0 115.09,2207.9 87.07,2458.6 l 644.88,154.8"
             style="fill:url(#linearGradient290);fill-opacity:1;fill-rule:nonzero;stroke:none"
             id="path292" />
        </g>
      </g>
      <path
         d="M 7262.81,9854.9 C 7086.9,9806.1 6490.98,9649.3 6118.96,9655.7 l 228.41,-1289 -18.18,-210.2 744.74,3.3 c 0,0 209.64,486.9 375.05,729.7 47.77,70.1 12.22,153.7 -14.86,234.1 l 37.2,24.7 c 37.86,25.2 54.28,72.6 40.14,115.8 L 7330.11,9819 c -9.42,28 -38.86,43.7 -67.3,35.9"
         style="fill:#ffffff;fill-opacity:1;fill-rule:nonzero;stroke:none"
         id="path294" />
      <path
         d="m 7133.6,8269.8 -14.64,-127.3 c 0,0 210.44,-630.3 -105.25,-2102.4 0,0 -683.71,-193.7 -1245.66,269.8 0,0 158.53,1389.4 201.82,1454.1 215.66,322.4 359.32,392.5 359.32,392.5 l 6.48,139.1 c 0,0 601.04,-108.6 797.93,-25.8"
         style="fill:#5c5e61;fill-opacity:1;fill-rule:nonzero;stroke:none"
         id="path296" />
      <g
         id="g298">
        <g
           id="g300"
           clip-path="url(#clipPath304)">
          <path
             d="m 6842.08,9751 c 2.61,3.4 -155.48,477.3 -155.48,477.3 l -226.45,-20.6 -88.47,-537.5 c 0,0 354.9,-71.7 470.4,80.8"
             style="fill:url(#linearGradient310);fill-opacity:1;fill-rule:nonzero;stroke:none"
             id="path312" />
        </g>
      </g>
      <g
         id="g314">
        <g
           id="g316"
           clip-path="url(#clipPath320)">
          <path
             d="m 6514.36,10975.5 c 15.1,-9.4 483.9,-203.1 383.17,-689.8 -5.95,-28.8 -25.14,-53.1 -51.96,-65.1 -68.79,-30.7 -216.9,-83.2 -394.04,-65.2 -245.59,24.9 -406.51,453.5 -399.67,578.2 6.85,124.7 312.84,335.1 462.5,241.9"
             style="fill:url(#linearGradient326);fill-opacity:1;fill-rule:nonzero;stroke:none"
             id="path328" />
        </g>
      </g>
      <g
         id="g330">
        <g
           id="g332"
           clip-path="url(#clipPath336)">
          <path
             d="m 7301.34,9584.9 c -24.41,63.5 20.54,131.8 88.47,134.9 172.79,8 473.15,62.5 727.41,316.7 164.91,164.9 208.61,764.9 208.61,764.9 0,0 34.77,278.2 104.3,278.2 69.54,0 0,-173.9 0,-173.9 0,0 173.84,-104.3 347.69,34.8 173.84,139.1 -34.77,-208.6 -208.61,-278.1 0,0 66.82,-1369.8 -1076.75,-1391.2 -41.89,-0.7 -80,24.8 -95.04,63.9 l -96.08,249.8"
             style="fill:url(#linearGradient342);fill-opacity:1;fill-rule:nonzero;stroke:none"
             id="path344" />
        </g>
      </g>
      <path
         d="m 6673.43,9992.9 c 0,91.6 -19.17,178.7 -53.69,257.5 -38.9,88.9 -30.9,192.8 31.31,267.2 101.85,121.9 138.8,276.3 82.67,411.6 -87.65,211.2 -368.64,295.3 -627.63,187.8 -183.59,-76.2 -306.63,-228.1 -331.51,-385.4 -14.3,-90.4 -62.68,-171 -135.4,-226.5 -103.11,-78.8 -181.68,-188 -222.4,-314.2 -27.52,-85.3 -82.85,-158.7 -160.72,-203.2 -175.82,-100.2 -322.37,-255.1 -411.15,-453.9 -222.63,-498.4 2.3,-1083.6 502.41,-1307 500.11,-223.3 1086,-0.3 1308.63,498.2 123.7,276.9 109.07,580.5 -14.01,834 -30.89,63.6 -37.35,136.9 -11.76,202.8 27.82,71.7 43.25,149.5 43.25,231.1"
         style="fill:#333435;fill-opacity:1;fill-rule:nonzero;stroke:none"
         id="path346" />
    </g>
  </g>
</svg>
