<?xml version="1.0" encoding="utf-8"?>
<!-- Generator: Adobe Illustrator 27.5.0, SVG Export Plug-In . SVG Version: 6.00 Build 0)  -->
<svg
  version="1.1"
  xmlns="http://www.w3.org/2000/svg"
  xmlns:xlink="http://www.w3.org/1999/xlink"
  x="0px"
  y="0px"
  viewBox="0 0 750 500"
  style="enable-background: new 0 0 750 500"
  xml:space="preserve"
>
  <g id="OBJECTS">
    <g>
      <g>
        <path
          style="fill: #6f6d80"
          d="M301.612,211.222V57.192c0-1.648,0.76-2.984,1.698-2.984h238.157c0.939,0,1.699,1.336,1.699,2.984
				v154.03c0,1.648-0.76,2.984-1.699,2.984H303.31C302.372,214.206,301.612,212.87,301.612,211.222z"
        />
        <path
          style="fill: #f2f2f2"
          d="M318.222,100.44V83.294c0-4.853,3.934-8.788,8.788-8.788h17.146c4.853,0,8.788,3.934,8.788,8.788
				v17.146c0,4.853-3.935,8.788-8.788,8.788H327.01C322.156,109.229,318.222,105.294,318.222,100.44z"
        />
        <path
          style="fill: #00bcc0"
          d="M318.222,142.78v-17.146c0-4.854,3.934-8.789,8.788-8.789h17.146c4.853,0,8.788,3.935,8.788,8.789
				v17.146c0,4.853-3.935,8.788-8.788,8.788H327.01C322.156,151.568,318.222,147.633,318.222,142.78z"
        />
        <path
          style="fill: #d4d4d4"
          d="M318.222,185.12v-17.146c0-4.854,3.934-8.788,8.788-8.788h17.146c4.853,0,8.788,3.934,8.788,8.788
				v17.146c0,4.854-3.935,8.788-8.788,8.788H327.01C322.156,193.908,318.222,189.974,318.222,185.12z"
        />
        <path
          style="fill: #d4d4d4"
          d="M361.625,100.44V83.294c0-4.853,3.934-8.788,8.788-8.788h17.146c4.853,0,8.788,3.934,8.788,8.788
				v17.146c0,4.853-3.935,8.788-8.788,8.788h-17.146C365.559,109.229,361.625,105.294,361.625,100.44z"
        />
        <path
          style="fill: #e64560"
          d="M361.625,142.78v-17.146c0-4.854,3.934-8.789,8.788-8.789h17.146c4.853,0,8.788,3.935,8.788,8.789
				v17.146c0,4.853-3.935,8.788-8.788,8.788h-17.146C365.559,151.568,361.625,147.633,361.625,142.78z"
        />
        <path
          style="fill: #00bcc0"
          d="M361.625,185.12v-17.146c0-4.854,3.934-8.788,8.788-8.788h17.146c4.853,0,8.788,3.934,8.788,8.788
				v17.146c0,4.854-3.935,8.788-8.788,8.788h-17.146C365.559,193.908,361.625,189.974,361.625,185.12z"
        />
        <path
          style="fill: #00bcc0"
          d="M405.027,100.44V83.294c0-4.853,3.934-8.788,8.788-8.788h17.146c4.854,0,8.788,3.934,8.788,8.788
				v17.146c0,4.853-3.934,8.788-8.788,8.788h-17.146C408.962,109.229,405.027,105.294,405.027,100.44z"
        />
        <path
          style="fill: #d4d4d4"
          d="M405.027,142.78v-17.146c0-4.854,3.934-8.789,8.788-8.789h17.146c4.854,0,8.788,3.935,8.788,8.789
				v17.146c0,4.853-3.934,8.788-8.788,8.788h-17.146C408.962,151.568,405.027,147.633,405.027,142.78z"
        />
        <path
          style="fill: #f2f2f2"
          d="M405.027,185.12v-17.146c0-4.854,3.934-8.788,8.788-8.788h17.146c4.854,0,8.788,3.934,8.788,8.788
				v17.146c0,4.854-3.934,8.788-8.788,8.788h-17.146C408.962,193.908,405.027,189.974,405.027,185.12z"
        />
        <path
          style="fill: #e64560"
          d="M448.43,100.44V83.294c0-4.853,3.934-8.788,8.788-8.788h17.145c4.853,0,8.788,3.934,8.788,8.788
				v17.146c0,4.853-3.935,8.788-8.788,8.788h-17.145C452.365,109.229,448.43,105.294,448.43,100.44z"
        />
        <path
          style="fill: #f2f2f2"
          d="M448.43,142.78v-17.146c0-4.854,3.934-8.789,8.788-8.789h17.145c4.853,0,8.788,3.935,8.788,8.789
				v17.146c0,4.853-3.935,8.788-8.788,8.788h-17.145C452.365,151.568,448.43,147.633,448.43,142.78z"
        />
        <path
          style="fill: #d4d4d4"
          d="M448.43,185.12v-17.146c0-4.854,3.934-8.788,8.788-8.788h17.145c4.853,0,8.788,3.934,8.788,8.788
				v17.146c0,4.854-3.935,8.788-8.788,8.788h-17.145C452.365,193.908,448.43,189.974,448.43,185.12z"
        />
        <path
          style="fill: #d4d4d4"
          d="M491.833,100.44V83.294c0-4.853,3.934-8.788,8.788-8.788h17.146c4.854,0,8.788,3.934,8.788,8.788
				v17.146c0,4.853-3.934,8.788-8.788,8.788h-17.146C495.768,109.229,491.833,105.294,491.833,100.44z"
        />
        <path
          style="fill: #f2f2f2"
          d="M491.833,142.78v-17.146c0-4.854,3.934-8.789,8.788-8.789h17.146c4.854,0,8.788,3.935,8.788,8.789
				v17.146c0,4.853-3.934,8.788-8.788,8.788h-17.146C495.768,151.568,491.833,147.633,491.833,142.78z"
        />
        <path
          style="fill: #d4d4d4"
          d="M491.833,185.12v-17.146c0-4.854,3.934-8.788,8.788-8.788h17.146c4.854,0,8.788,3.934,8.788,8.788
				v17.146c0,4.854-3.934,8.788-8.788,8.788h-17.146C495.768,193.908,491.833,189.974,491.833,185.12z"
        />
      </g>
      <g>
        <path
          style="fill: #a6654b"
          d="M676.279,317.928c-0.187,13.905-0.374,27.808-0.562,41.712c-0.055,4.212,3.742,8.242,8.047,8.047
				c4.409-0.196,7.986-3.532,8.047-8.047c0.188-13.904,0.375-27.807,0.562-41.712c0.059-4.213-3.741-8.239-8.048-8.048
				C679.917,310.077,676.342,313.415,676.279,317.928z"
        />
        <path
          style="fill: #7fbf60"
          d="M729.468,303.807c-3.639-9.734-11.978-17.613-22.215-19.93c-0.01-0.001-0.02-0.002-0.029-0.003
				c3.096-8.539,1.984-18.587-5.647-26.016c-1.455-1.415-3.092-2.624-4.853-3.62c-7.335-4.142-16.821-4.541-24.312-0.594
				c-8.771,4.62-14.094,14.851-13.172,24.687c-5.583,1.913-10.654,5.224-14.472,10.015c-7.221,9.063-8.987,21.779-4.573,32.499
				c4.547,11.039,15.336,18.685,27.266,19.357c4.001,0.225,8.023-0.513,11.759-2.006c0.209,0.304,0.368,0.633,0.592,0.93
				c3.508,4.564,8.568,7.267,14.246,8.009c11.278,1.473,22.416-5.253,29.33-13.771C730.149,325.037,733.34,314.16,729.468,303.807z"
        />
      </g>
      <g>
        <path
          style="fill: #a6654b"
          d="M57.34,378.924c-0.187,13.905-0.374,27.808-0.562,41.712c-0.055,4.212,3.742,8.242,8.047,8.047
				c4.409-0.196,7.986-3.532,8.047-8.047c0.188-13.904,0.375-27.807,0.562-41.712c0.059-4.213-3.741-8.239-8.047-8.048
				C60.979,371.073,57.403,374.411,57.34,378.924z"
        />
        <path
          style="fill: #7fbf60"
          d="M110.53,364.803c-3.639-9.734-11.978-17.613-22.215-19.93c-0.01-0.001-0.02-0.002-0.03-0.003
				c3.097-8.539,1.985-18.587-5.646-26.016c-1.455-1.415-3.092-2.624-4.853-3.62c-7.335-4.142-16.821-4.541-24.311-0.594
				c-8.771,4.621-14.094,14.851-13.172,24.687c-5.583,1.913-10.654,5.224-14.472,10.015c-7.221,9.063-8.987,21.779-4.573,32.499
				c4.546,11.039,15.336,18.685,27.266,19.357c4.001,0.225,8.023-0.513,11.759-2.006c0.209,0.304,0.368,0.633,0.591,0.93
				c3.509,4.564,8.569,7.267,14.247,8.009c11.278,1.473,22.416-5.253,29.33-13.771C111.211,386.033,114.402,375.156,110.53,364.803z
				"
        />
      </g>
      <path
        style="fill: #a6654b"
        d="M58.974,416.762h19.678h2.636h13.105h6.572h13.109h2.632h17.05h2.63h8.768h10.915h1.31h7.453h2.636
			h1.706h10.518h0.881h6.572h4.342h8.766h2.632h6.904h10.146h2.63h6.901h2.635h10.147h1.31h1.649h6.572h3.574h9.534h0.984h1.649
			h10.146h6.904h2.63h8.769h10.914h1.31h7.454h1.867h0.768h1.707h10.517h0.882h5.804h0.768h1.867h2.475h8.766h1.865h0.768h5.804
			h11.246h1.862h0.768h1.865h17.05h0.768h1.31h0.553h8.768h2.475h8.44h1.31h0.767h6.686h2.635h1.707h0.768h9.75h0.881h6.572h4.342
			h8.766h2.633h6.904h10.146h2.631h6.9h2.636h10.146h1.31h1.65h6.572h3.574h9.534h0.984h1.649h10.146h6.904h2.63h8.769h10.914h1.31
			h7.453h2.636h1.707h10.517h0.882h6.572h4.342h8.766h2.633h17.05h2.63h19.683c0.231,0,0.426,0.102,0.652,0.113
			c0.232-0.011,0.424-0.113,0.658-0.113h11.796h10.517h11.796c6.317,0,11.438,4.423,11.438,9.88v19.272
			c0,5.457-5.121,9.878-11.438,9.878h-11.796H664.71h-11.796c-0.234,0-0.426-0.102-0.658-0.113
			c-0.226,0.011-0.421,0.113-0.652,0.113h-19.683h-2.63h-17.05h-2.633h-8.766h-4.342h-6.572h-0.882H578.53h-1.707h-2.636h-7.453
			h-1.31H554.51h-8.769h-2.63h-6.904h-10.146h-1.649h-0.984h-9.534h-3.574h-6.572h-1.65h-1.31h-10.146h-2.636h-6.9h-2.631H468.33
			h-6.904h-2.633h-8.766h-4.342h-6.572h-0.881h-9.75h-0.768h-1.707h-2.635h-6.686h-0.767h-1.31h-8.44h-2.475h-8.768h-0.553h-1.31
			h-0.768h-17.05h-1.865h-0.768h-1.862h-11.246h-5.804h-0.768h-1.865h-8.766h-2.475h-1.867h-0.768h-5.804h-0.882H319.99h-1.707
			h-0.768h-1.867h-7.454h-1.31H295.97h-8.769h-2.63h-6.904h-10.146h-1.649h-0.984h-9.534h-3.574h-6.572h-1.649h-1.31h-10.147h-2.635
			h-6.901h-2.63H209.79h-6.904h-2.632h-8.766h-4.342h-6.572h-0.881h-10.518h-1.706h-2.636h-7.453h-1.31h-10.915h-8.768h-2.63h-17.05
			h-2.632h-13.109h-6.572H81.288h-2.636H58.974c-6.317,0-11.44-4.421-11.44-9.878v-19.272
			C47.534,421.185,52.657,416.762,58.974,416.762z"
      />
      <path
        style="fill: #00bcc0"
        d="M389.666,203.708h155.038c1.659,0,3.004,0.704,3.004,1.572v220.475
			c0,0.868-1.345,1.572-3.004,1.572H389.666c-1.659,0-3.004-0.704-3.004-1.572V205.281
			C386.662,204.412,388.008,203.708,389.666,203.708z"
      />
      <path
        style="fill: #00bcc0"
        d="M596.475,287.211h87.662c0.938,0,1.698,0.433,1.698,0.966V423.72c0,0.533-0.76,0.966-1.698,0.966
			h-87.662c-0.939,0-1.699-0.433-1.699-0.966V288.177C594.776,287.644,595.537,287.211,596.475,287.211z"
      />
      <path
        style="fill: #00bcc0"
        d="M87.983,266.628h100.149c1.072,0,1.94,0.495,1.94,1.104v154.849c0,0.61-0.868,1.104-1.94,1.104
			H87.983c-1.072,0-1.941-0.495-1.941-1.104V267.733C86.042,267.123,86.911,266.628,87.983,266.628z"
      />
      <g>
        <path
          style="fill: #6f6d80"
          d="M128.769,185.516h154.029c1.648,0,2.984,0.76,2.984,1.698V425.37c0,0.939-1.336,1.699-2.984,1.699
				H128.769c-1.648,0-2.984-0.76-2.984-1.699V187.214C125.784,186.276,127.121,185.516,128.769,185.516z"
        />
        <path
          style="fill: #d4d4d4"
          d="M239.551,202.126h17.146c4.854,0,8.788,3.934,8.788,8.788v17.146c0,4.853-3.934,8.788-8.788,8.788
				h-17.146c-4.854,0-8.788-3.935-8.788-8.788v-17.146C230.762,206.06,234.697,202.126,239.551,202.126z"
        />
        <path
          style="fill: #e64560"
          d="M197.211,202.126h17.145c4.853,0,8.788,3.934,8.788,8.788v17.146c0,4.853-3.935,8.788-8.788,8.788
				h-17.145c-4.854,0-8.788-3.935-8.788-8.788v-17.146C188.422,206.06,192.357,202.126,197.211,202.126z"
        />
        <path
          style="fill: #d4d4d4"
          d="M154.871,202.126h17.145c4.853,0,8.788,3.934,8.788,8.788v17.146c0,4.853-3.935,8.788-8.788,8.788
				h-17.145c-4.854,0-8.788-3.935-8.788-8.788v-17.146C146.083,206.06,150.017,202.126,154.871,202.126z"
        />
        <path
          style="fill: #f2f2f2"
          d="M239.551,245.528h17.146c4.854,0,8.788,3.934,8.788,8.788v17.146c0,4.853-3.934,8.788-8.788,8.788
				h-17.146c-4.854,0-8.788-3.935-8.788-8.788v-17.146C230.762,249.463,234.697,245.528,239.551,245.528z"
        />
        <path
          style="fill: #d4d4d4"
          d="M197.211,245.528h17.145c4.853,0,8.788,3.934,8.788,8.788v17.146c0,4.853-3.935,8.788-8.788,8.788
				h-17.145c-4.854,0-8.788-3.935-8.788-8.788v-17.146C188.422,249.463,192.357,245.528,197.211,245.528z"
        />
        <path
          style="fill: #00bcc0"
          d="M154.871,245.528h17.145c4.853,0,8.788,3.934,8.788,8.788v17.146c0,4.853-3.935,8.788-8.788,8.788
				h-17.145c-4.854,0-8.788-3.935-8.788-8.788v-17.146C146.083,249.463,150.017,245.528,154.871,245.528z"
        />
        <path
          style="fill: #d4d4d4"
          d="M239.551,288.931h17.146c4.854,0,8.788,3.934,8.788,8.788v17.146c0,4.854-3.934,8.788-8.788,8.788
				h-17.146c-4.854,0-8.788-3.934-8.788-8.788V297.72C230.762,292.866,234.697,288.931,239.551,288.931z"
        />
        <path
          style="fill: #f2f2f2"
          d="M197.211,288.931h17.145c4.853,0,8.788,3.934,8.788,8.788v17.146c0,4.854-3.935,8.788-8.788,8.788
				h-17.145c-4.854,0-8.788-3.934-8.788-8.788V297.72C188.422,292.866,192.357,288.931,197.211,288.931z"
        />
        <path
          style="fill: #d4d4d4"
          d="M154.871,288.931h17.145c4.853,0,8.788,3.934,8.788,8.788v17.146c0,4.854-3.935,8.788-8.788,8.788
				h-17.145c-4.854,0-8.788-3.934-8.788-8.788V297.72C146.083,292.866,150.017,288.931,154.871,288.931z"
        />
        <path
          style="fill: #d4d4d4"
          d="M239.551,332.334h17.146c4.854,0,8.788,3.934,8.788,8.788v17.146c0,4.853-3.934,8.788-8.788,8.788
				h-17.146c-4.854,0-8.788-3.935-8.788-8.788v-17.146C230.762,336.269,234.697,332.334,239.551,332.334z"
        />
        <path
          style="fill: #e64560"
          d="M197.211,332.334h17.145c4.853,0,8.788,3.934,8.788,8.788v17.146c0,4.853-3.935,8.788-8.788,8.788
				h-17.145c-4.854,0-8.788-3.935-8.788-8.788v-17.146C188.422,336.269,192.357,332.334,197.211,332.334z"
        />
        <path
          style="fill: #e64560"
          d="M154.871,332.334h17.145c4.853,0,8.788,3.934,8.788,8.788v17.146c0,4.853-3.935,8.788-8.788,8.788
				h-17.145c-4.854,0-8.788-3.935-8.788-8.788v-17.146C146.083,336.269,150.017,332.334,154.871,332.334z"
        />
        <path
          style="fill: #d4d4d4"
          d="M239.551,375.737h17.146c4.854,0,8.788,3.934,8.788,8.788v17.145c0,4.854-3.934,8.788-8.788,8.788
				h-17.146c-4.854,0-8.788-3.934-8.788-8.788v-17.145C230.762,379.672,234.697,375.737,239.551,375.737z"
        />
        <path
          style="fill: #d4d4d4"
          d="M197.211,375.737h17.145c4.853,0,8.788,3.934,8.788,8.788v17.145c0,4.854-3.935,8.788-8.788,8.788
				h-17.145c-4.854,0-8.788-3.934-8.788-8.788v-17.145C188.422,379.672,192.357,375.737,197.211,375.737z"
        />
        <path
          style="fill: #d4d4d4"
          d="M154.871,375.737h17.145c4.853,0,8.788,3.934,8.788,8.788v17.145c0,4.854-3.935,8.788-8.788,8.788
				h-17.145c-4.854,0-8.788-3.934-8.788-8.788v-17.145C146.083,379.672,150.017,375.737,154.871,375.737z"
        />
      </g>
      <g>
        <path
          style="fill: #6f6d80"
          d="M474.785,213.315H627.7c1.637,0,2.963,0.695,2.963,1.552v217.551c0,0.857-1.326,1.552-2.963,1.552
				H474.785c-1.636,0-2.962-0.695-2.962-1.552V214.867C471.823,214.01,473.148,213.315,474.785,213.315z"
        />
        <path
          style="fill: #d4d4d4"
          d="M500.7,228.488h15.011h2.01h9.998h5.014h9.999h2.008h13.007h2.007h15.014
				c0.177,0,0.326,0.083,0.498,0.092c0.177-0.009,0.323-0.092,0.501-0.092h8.999h8.023h8.999c4.819,0,8.725,3.594,8.725,8.028
				v15.662c0,4.435-3.906,8.027-8.725,8.027h-8.999h-8.023h-8.999c-0.178,0-0.325-0.084-0.501-0.092
				c-0.172,0.009-0.321,0.092-0.498,0.092h-15.014h-2.007H544.74h-2.008h-9.999h-5.014h-9.998h-2.01H500.7
				c-4.819,0-8.728-3.592-8.728-8.027v-15.662C491.972,232.083,495.881,228.488,500.7,228.488z"
        />
        <path
          style="fill: #e64560"
          d="M500.7,268.135h15.011h2.01h9.998h5.014h9.999h2.008h13.007h2.007h15.014
				c0.177,0,0.326,0.081,0.498,0.092c0.177-0.011,0.323-0.092,0.501-0.092h8.999h8.023h8.999c4.819,0,8.725,3.592,8.725,8.027
				v15.662c0,4.434-3.906,8.028-8.725,8.028h-8.999h-8.023h-8.999c-0.178,0-0.325-0.083-0.501-0.092
				c-0.172,0.009-0.321,0.092-0.498,0.092h-15.014h-2.007H544.74h-2.008h-9.999h-5.014h-9.998h-2.01H500.7
				c-4.819,0-8.728-3.594-8.728-8.028v-15.662C491.972,271.728,495.881,268.135,500.7,268.135z"
        />
        <path
          style="fill: #00bcc0"
          d="M500.7,307.782h15.011h2.01h9.998h5.014h9.999h2.008h13.007h2.007h15.014
				c0.177,0,0.326,0.084,0.498,0.092c0.177-0.008,0.323-0.092,0.501-0.092h8.999h8.023h8.999c4.819,0,8.725,3.596,8.725,8.03v15.662
				c0,4.432-3.906,8.026-8.725,8.026h-8.999h-8.023h-8.999c-0.178,0-0.325-0.083-0.501-0.092c-0.172,0.01-0.321,0.092-0.498,0.092
				h-15.014h-2.007H544.74h-2.008h-9.999h-5.014h-9.998h-2.01H500.7c-4.819,0-8.728-3.594-8.728-8.026v-15.662
				C491.972,311.377,495.881,307.782,500.7,307.782z"
        />
        <path
          style="fill: #f2f2f2"
          d="M500.7,347.431h15.011h2.01h9.998h5.014h9.999h2.008h13.007h2.007h15.014
				c0.177,0,0.326,0.081,0.498,0.092c0.177-0.011,0.323-0.092,0.501-0.092h8.999h8.023h8.999c4.819,0,8.725,3.592,8.725,8.026
				v15.663c0,4.434-3.906,8.028-8.725,8.028h-8.999h-8.023h-8.999c-0.178,0-0.325-0.083-0.501-0.092
				c-0.172,0.01-0.321,0.092-0.498,0.092h-15.014h-2.007H544.74h-2.008h-9.999h-5.014h-9.998h-2.01H500.7
				c-4.819,0-8.728-3.594-8.728-8.028v-15.663C491.972,351.024,495.881,347.431,500.7,347.431z"
        />
        <path
          style="fill: #d4d4d4"
          d="M500.7,387.078h15.011h2.01h9.998h5.014h9.999h2.008h13.007h2.007h15.014
				c0.177,0,0.326,0.084,0.498,0.092c0.177-0.007,0.323-0.092,0.501-0.092h8.999h8.023h8.999c4.819,0,8.725,3.596,8.725,8.03v15.66
				c0,4.435-3.906,8.029-8.725,8.029h-8.999h-8.023h-8.999c-0.178,0-0.325-0.085-0.501-0.092c-0.172,0.007-0.321,0.092-0.498,0.092
				h-15.014h-2.007H544.74h-2.008h-9.999h-5.014h-9.998h-2.01H500.7c-4.819,0-8.728-3.594-8.728-8.029v-15.66
				C491.972,390.673,495.881,387.078,500.7,387.078z"
        />
      </g>
      <g>
        <path
          style="fill: #a6654b"
          d="M646.451,383.475c-0.187,13.905-0.373,27.808-0.562,41.712c-0.055,4.212,3.742,8.242,8.047,8.047
				c4.409-0.196,7.986-3.532,8.047-8.047c0.189-13.904,0.375-27.806,0.562-41.712c0.059-4.213-3.741-8.239-8.047-8.047
				C650.089,375.625,646.513,378.963,646.451,383.475z"
        />
        <path
          style="fill: #7fbf60"
          d="M699.641,369.355c-3.64-9.734-11.978-17.613-22.216-19.93c-0.01-0.001-0.019-0.002-0.029-0.003
				c3.097-8.539,1.985-18.587-5.647-26.016c-1.454-1.415-3.091-2.624-4.852-3.62c-7.336-4.142-16.822-4.541-24.312-0.594
				c-8.77,4.621-14.094,14.851-13.172,24.687c-5.582,1.913-10.654,5.224-14.471,10.015c-7.222,9.063-8.988,21.779-4.574,32.499
				c4.547,11.039,15.337,18.685,27.266,19.357c4.002,0.225,8.024-0.513,11.76-2.006c0.209,0.304,0.367,0.633,0.591,0.93
				c3.508,4.564,8.568,7.267,14.247,8.009c11.278,1.473,22.415-5.253,29.329-13.771
				C700.321,390.585,703.512,379.708,699.641,369.355z"
        />
      </g>
      <g>
        <g>
          <path
            style="fill: #39354d"
            d="M159.518,251.14c8.339-7.611,13.497-18.127,13.497-29.744c0-23.224-20.614-42.051-46.044-42.051
					s-46.044,18.827-46.044,42.051c0,23.224,20.614,42.051,46.044,42.051c7.57,0,14.707-1.679,21.007-4.635
					c4.052,2.63,8.375,4.921,12.591,7.243c0.836,0.46,1.64-0.295,1.499-1.152C161.311,260.3,160.442,255.713,159.518,251.14z"
          />
        </g>
        <g>
          <path
            style="fill: #ff8094"
            d="M111.656,217.557l-7.288-1.059l-3.258-6.603c-0.307-0.621-1.326-0.621-1.633,0l-3.258,6.603
					l-7.287,1.059c-0.343,0.05-0.628,0.29-0.735,0.62c-0.107,0.33-0.018,0.691,0.231,0.934l5.273,5.14l-1.245,7.257
					c-0.058,0.341,0.082,0.686,0.362,0.89c0.281,0.205,0.653,0.231,0.959,0.069l6.518-3.426l6.518,3.426
					c0.133,0.07,0.279,0.105,0.424,0.105c0.188,0,0.377-0.059,0.535-0.174c0.28-0.204,0.421-0.548,0.362-0.89l-1.245-7.257
					l5.273-5.14c0.248-0.242,0.338-0.604,0.231-0.934C112.283,217.847,111.998,217.607,111.656,217.557z"
          />
          <path
            style="fill: #ff8094"
            d="M139.247,218.176c-0.107-0.329-0.392-0.57-0.735-0.62l-7.288-1.059l-3.258-6.603
					c-0.307-0.621-1.326-0.621-1.633,0l-3.258,6.603l-7.287,1.059c-0.343,0.05-0.628,0.29-0.735,0.62
					c-0.107,0.33-0.018,0.691,0.231,0.934l5.273,5.14l-1.245,7.257c-0.058,0.341,0.082,0.686,0.362,0.89
					c0.281,0.205,0.652,0.231,0.959,0.069l6.518-3.426l6.518,3.426c0.133,0.07,0.279,0.105,0.424,0.105
					c0.188,0,0.376-0.059,0.535-0.174c0.28-0.204,0.421-0.548,0.362-0.89l-1.245-7.257l5.272-5.14
					C139.265,218.868,139.354,218.506,139.247,218.176z"
          />
        </g>
        <g>
          <path
            style="fill: #ff8094"
            d="M160.947,232.571c-0.145,0-0.29-0.035-0.424-0.105l-6.518-3.426l-6.518,3.426
					c-0.307,0.162-0.678,0.136-0.959-0.069c-0.28-0.204-0.421-0.548-0.362-0.89l1.245-7.257l-5.273-5.14
					c-0.248-0.242-0.338-0.604-0.231-0.934c0.107-0.329,0.392-0.57,0.735-0.62l7.288-1.059l3.258-6.603
					c0.307-0.621,1.327-0.621,1.633,0l3.258,6.603l7.288,1.059c0.343,0.05,0.628,0.29,0.735,0.62
					c0.107,0.33,0.018,0.691-0.231,0.934l-5.272,5.14l1.245,7.257c0.058,0.341-0.082,0.686-0.362,0.89
					C161.324,232.512,161.136,232.571,160.947,232.571z M154.006,227.101c0.145,0,0.291,0.035,0.424,0.105l5.309,2.791l-1.014-5.911
					c-0.05-0.295,0.048-0.597,0.262-0.806l4.294-4.186l-5.936-0.862c-0.296-0.043-0.553-0.229-0.686-0.498l-2.654-5.378
					l-2.654,5.378c-0.133,0.269-0.389,0.455-0.685,0.498l-5.936,0.862l4.295,4.186c0.215,0.209,0.313,0.511,0.262,0.806
					l-1.014,5.911l5.309-2.791C153.715,227.135,153.861,227.101,154.006,227.101z"
          />
        </g>
      </g>
      <g>
        <g>
          <path
            style="fill: #39354d"
            d="M509.975,128.421c-8.339-7.611-13.497-18.127-13.497-29.744
					c0-23.224,20.614-42.051,46.044-42.051c25.429,0,46.044,18.827,46.044,42.051s-20.614,42.051-46.044,42.051
					c-7.57,0-14.707-1.679-21.007-4.635c-4.052,2.63-8.375,4.921-12.591,7.243c-0.836,0.46-1.64-0.295-1.499-1.152
					C508.183,137.581,509.052,132.994,509.975,128.421z"
          />
        </g>
        <g>
          <path
            style="fill: #ff8094"
            d="M557.838,94.838l7.287-1.059l3.258-6.603c0.307-0.621,1.326-0.621,1.633,0l3.258,6.603
					l7.288,1.059c0.343,0.05,0.628,0.29,0.735,0.62c0.107,0.33,0.018,0.691-0.231,0.934l-5.273,5.14l1.245,7.257
					c0.058,0.341-0.082,0.686-0.362,0.89c-0.281,0.205-0.653,0.231-0.959,0.069l-6.518-3.426l-6.518,3.426
					c-0.133,0.07-0.279,0.105-0.424,0.105c-0.189,0-0.377-0.059-0.535-0.174c-0.28-0.204-0.421-0.549-0.362-0.89l1.245-7.257
					l-5.273-5.14c-0.248-0.242-0.338-0.604-0.231-0.934C557.21,95.128,557.495,94.887,557.838,94.838z"
          />
          <path
            style="fill: #ff8094"
            d="M530.981,94.838l7.288-1.059l3.258-6.603c0.307-0.621,1.326-0.621,1.633,0l3.258,6.603
					l7.287,1.059c0.343,0.05,0.628,0.29,0.735,0.62c0.107,0.33,0.018,0.691-0.231,0.934l-5.272,5.14l1.245,7.257
					c0.058,0.341-0.082,0.686-0.362,0.89c-0.281,0.205-0.652,0.231-0.959,0.069l-6.518-3.426l-6.518,3.426
					c-0.133,0.07-0.279,0.105-0.424,0.105c-0.188,0-0.376-0.059-0.535-0.174c-0.28-0.204-0.421-0.549-0.362-0.89l1.245-7.257
					l-5.272-5.14c-0.249-0.242-0.338-0.604-0.231-0.934C530.353,95.128,530.638,94.887,530.981,94.838z"
          />
          <path
            style="fill: #ff8094"
            d="M503.39,95.457c0.107-0.329,0.392-0.57,0.735-0.62l7.288-1.059l3.258-6.603
					c0.307-0.621,1.327-0.621,1.633,0l3.258,6.603l7.288,1.059c0.343,0.05,0.628,0.29,0.735,0.62
					c0.107,0.33,0.018,0.691-0.231,0.934l-5.273,5.14l1.245,7.257c0.058,0.341-0.082,0.686-0.362,0.89
					c-0.281,0.205-0.652,0.231-0.959,0.069l-6.518-3.426l-6.518,3.426c-0.133,0.07-0.279,0.105-0.424,0.105
					c-0.188,0-0.376-0.059-0.535-0.174c-0.28-0.204-0.421-0.549-0.362-0.89l1.245-7.257l-5.272-5.14
					C503.372,96.148,503.283,95.787,503.39,95.457z"
          />
        </g>
      </g>
      <g>
        <g>
          <path
            style="fill: #39354d"
            d="M597.919,267.412c-8.339-7.611-13.497-18.127-13.497-29.744
					c0-23.224,20.614-42.051,46.044-42.051s46.044,18.827,46.044,42.051s-20.614,42.051-46.044,42.051
					c-7.57,0-14.707-1.679-21.007-4.635c-4.052,2.631-8.375,4.921-12.591,7.243c-0.836,0.461-1.64-0.295-1.499-1.152
					C596.127,276.572,596.996,271.985,597.919,267.412z"
          />
        </g>
        <path
          style="fill: #ff8094"
          d="M645.047,234.448c0.107-0.329,0.392-0.57,0.735-0.62l7.288-1.059l3.258-6.603
				c0.307-0.621,1.326-0.621,1.633,0l3.258,6.603l7.287,1.059c0.343,0.05,0.628,0.29,0.735,0.62c0.107,0.33,0.018,0.691-0.231,0.934
				l-5.272,5.14l1.245,7.257c0.058,0.341-0.082,0.686-0.362,0.89c-0.281,0.205-0.653,0.231-0.959,0.069l-6.518-3.426l-6.518,3.426
				c-0.133,0.07-0.279,0.105-0.424,0.105c-0.188,0-0.376-0.059-0.535-0.174c-0.28-0.204-0.421-0.548-0.362-0.89l1.245-7.257
				l-5.273-5.14C645.029,235.139,644.94,234.778,645.047,234.448z"
        />
        <g>
          <path
            style="fill: #ff8094"
            d="M622.811,248.669c-0.28-0.204-0.421-0.548-0.362-0.89l1.245-7.257l-5.273-5.14
					c-0.248-0.242-0.338-0.604-0.231-0.934c0.107-0.329,0.392-0.57,0.735-0.62l7.288-1.059l3.258-6.603
					c0.307-0.621,1.326-0.621,1.633,0l3.258,6.603l7.288,1.059c0.343,0.05,0.628,0.29,0.735,0.62
					c0.107,0.33,0.018,0.691-0.231,0.934l-5.273,5.14l1.245,7.257c0.058,0.341-0.082,0.686-0.362,0.89
					c-0.281,0.205-0.652,0.231-0.959,0.069l-6.518-3.426l-6.518,3.426c-0.133,0.07-0.279,0.105-0.424,0.105
					C623.158,248.843,622.97,248.784,622.811,248.669z M630.711,243.477l5.309,2.791l-1.014-5.911
					c-0.05-0.295,0.048-0.596,0.262-0.806l4.294-4.186l-5.936-0.862c-0.297-0.043-0.553-0.229-0.685-0.498l-2.654-5.378
					l-2.654,5.378c-0.133,0.269-0.389,0.455-0.685,0.498l-5.936,0.862l4.294,4.186c0.215,0.209,0.313,0.511,0.262,0.806
					l-1.014,5.911l5.308-2.791c0.132-0.07,0.278-0.105,0.424-0.105C630.433,243.373,630.579,243.407,630.711,243.477z"
          />
        </g>
        <g>
          <path
            style="fill: #ff8094"
            d="M595.955,248.669c-0.28-0.204-0.42-0.548-0.362-0.89l1.245-7.257l-5.273-5.14
					c-0.248-0.242-0.338-0.604-0.231-0.934c0.107-0.329,0.392-0.57,0.735-0.62l7.288-1.059l3.258-6.603
					c0.307-0.621,1.326-0.621,1.633,0l3.258,6.603l7.288,1.059c0.343,0.05,0.628,0.29,0.735,0.62
					c0.107,0.33,0.018,0.691-0.231,0.934l-5.273,5.14l1.245,7.257c0.058,0.341-0.082,0.686-0.362,0.89
					c-0.281,0.205-0.652,0.231-0.959,0.069l-6.518-3.426l-6.518,3.426c-0.133,0.07-0.279,0.105-0.424,0.105
					C596.302,248.843,596.114,248.784,595.955,248.669z M603.855,243.477l5.308,2.791l-1.014-5.911
					c-0.05-0.295,0.048-0.596,0.262-0.806l4.295-4.186l-5.936-0.862c-0.297-0.043-0.552-0.229-0.685-0.498l-2.654-5.378
					l-2.654,5.378c-0.133,0.269-0.389,0.455-0.686,0.498l-5.936,0.862l4.294,4.186c0.215,0.209,0.313,0.511,0.262,0.806
					l-1.014,5.911l5.309-2.791c0.132-0.07,0.278-0.105,0.424-0.105C603.577,243.373,603.722,243.407,603.855,243.477z"
          />
        </g>
      </g>
      <g>
        <g>
          <path
            style="fill: #39354d"
            d="M448.23,91.751H266.314c-7.762,0-14.113,5.972-14.113,13.272v326.348
					c0,7.299,6.352,13.271,14.113,13.271H448.23c7.762,0,14.112-5.972,14.112-13.271V105.023
					C462.343,97.724,455.992,91.751,448.23,91.751z"
          />
          <path
            style="fill: #7fbf60"
            d="M441.677,99.766h-23.926v9.048c0,3.914-3.655,7.116-8.123,7.116H304.915
					c-4.467,0-8.124-3.202-8.124-7.116v-9.048h-23.925c-7.202,0-13.096,5.162-13.096,11.472v282.09
					c0,6.309,5.894,11.472,13.096,11.472h168.809c7.202,0,13.095-5.163,13.095-11.472v-282.09
					C454.772,104.928,448.879,99.766,441.677,99.766z"
          />
          <g>
            <defs>
              <path
                id="SVGID_1_"
                d="M441.677,99.766h-23.926v9.048c0,3.914-3.655,7.116-8.123,7.116H304.915
							c-4.467,0-8.124-3.202-8.124-7.116v-9.048h-23.925c-7.202,0-13.096,5.162-13.096,11.472v282.09
							c0,6.309,5.894,11.472,13.096,11.472h168.809c7.202,0,13.095-5.163,13.095-11.472v-282.09
							C454.772,104.928,448.879,99.766,441.677,99.766z"
              />
            </defs>
            <clipPath
              id="SVGID_00000173844038055384097750000018405237427680396726_"
            >
              <use xlink:href="#SVGID_1_" style="overflow: visible" />
            </clipPath>
            <g
              style="
                clip-path: url(#SVGID_00000173844038055384097750000018405237427680396726_);
              "
            >
              <path
                style="fill: #d4d4d4"
                d="M191.575,312.569c17.186,3.039,34.406,4.558,51.533,4.559c17.136,0,34.179-1.52,51.017-4.562
							c0.401-0.072,0.826-0.149,1.26-0.228l7.462,54.31c-20.54,0.075-41.282-4.006-60.274-11.894
							c-1.176-0.488-2.523,0.069-3.012,1.244c-0.488,1.175,0.069,2.524,1.244,3.012c19.377,8.048,40.526,12.25,61.487,12.25
							c1.796,0,3.587-0.031,5.379-0.093c19.757-0.682,38.928-4.956,57.077-12.692l24.144,64.664
							c0.037,6.423,0.421,12.904,1.161,19.42c2.096,18.444,6.975,36.749,14.504,54.406c0.373,0.876,1.225,1.401,2.121,1.401
							c0.302,0,0.608-0.06,0.903-0.185c1.171-0.499,1.715-1.853,1.216-3.023c-8.214-19.264-13.073-38.979-14.756-58.229
							l13.388,35.858c0.692,1.853,2.45,2.998,4.318,2.998c0.536,0,1.08-0.094,1.611-0.293c2.384-0.89,3.596-3.545,2.705-5.93
							l-22.283-59.68c2.763-39.386,19.43-74.721,48.414-97.269c33.495-26.058,73.696-26.48,94.679-24.412
							c1.268,0.124,2.395-0.801,2.519-2.067c0.125-1.266-0.801-2.394-2.067-2.519c-21.665-2.135-63.202-1.679-97.961,25.361
							c-24.17,18.803-41.04,47.709-47.502,81.392c-0.639,3.332-1.171,6.693-1.605,10.08L351.561,296.8
							c28.46-11.213,53.795-27.072,75.314-47.156c13.303-12.416,40.983-38.252,54.706-81.236c5.715-17.902,8.424-36.7,8.052-55.873
							c-0.049-2.545-2.155-4.576-4.697-4.518c-2.545,0.049-4.568,2.152-4.518,4.697c0.352,18.159-2.21,35.954-7.617,52.891
							c-5.344,16.741-12.81,30.62-20.7,42.055l-86.733-78.768c-0.11-0.1-0.229-0.185-0.352-0.26
							c-0.289-11.938-1.814-24.021-4.592-36.057c-0.287-1.24-1.524-2.013-2.764-1.727c-1.24,0.286-2.013,1.524-1.727,2.764
							c7.063,30.594,5.847,61.476-3.518,89.305c-12.26,36.434-37.409,66.34-74.748,88.89
							c-28.486,17.203-54.134,23.901-58.986,25.069c-1.237,0.298-1.999,1.543-1.701,2.78c0.254,1.056,1.198,1.766,2.239,1.766
							c0.178,0,0.36-0.021,0.541-0.064c4.968-1.196,31.223-8.05,60.291-25.604c7.491-4.524,14.552-9.394,21.15-14.577l10.681,38.387
							c-7.939,1.862-14.569,3.061-19.394,3.932c-32.592,5.887-66.005,5.886-99.307-0.003c-2.505-0.442-4.897,1.229-5.341,3.736
							C187.397,309.734,189.069,312.125,191.575,312.569z M319.532,244.745c10.057-2.503,25.603-4.242,43.117,1.418
							c14.073,4.548,24.196,12.269,30.587,18.496c-28.195,19.02-56.228,28.615-76.874,33.815l-11.256-40.454
							C310.22,253.786,315.036,249.357,319.532,244.745z M449.41,211.442c-3.064,4.188-6.16,8.021-9.196,11.521
							c-8.297-8.282-26.054-22.493-53.183-26.519c-11.675-1.732-23.534-1.404-35.305,0.957c1.874-4.255,3.569-8.592,5.057-13.014
							c5.305-15.767,8.066-32.477,8.27-49.556L449.41,211.442z M420.586,242.906c-7.71,7.196-15.591,13.521-23.485,19.091
							c-6.721-6.694-17.647-15.245-33.034-20.219c-15.094-4.878-28.805-4.567-39.125-2.855
							c9.896-11.139,18.054-23.283,24.369-36.285c12.337-2.901,24.799-3.453,37.044-1.636c26.06,3.867,43.007,17.579,50.793,25.411
							C430.925,233.249,425.111,238.682,420.586,242.906z M299.922,311.496c10.019-1.908,25.364-5.231,43.005-11.469l20.209,54.127
							c-17.683,7.565-36.367,11.742-55.623,12.407c-0.008,0-0.017,0.001-0.025,0.001L299.922,311.496z"
              />
              <g>
                <path
                  style="fill: #39354d"
                  d="M361.893,300.117l39.295-22.687c0.963-0.556,2.195-0.226,2.751,0.737l9.738,16.867
								c0.556,0.963,0.226,2.195-0.737,2.751l-39.295,22.687c-0.963,0.556-2.195,0.226-2.751-0.737l-9.738-16.867
								C360.6,301.905,360.93,300.673,361.893,300.117z"
                />
                <path
                  style="fill: #39354d"
                  d="M431.993,180.243l-34.418-29.569c-0.844-0.725-0.94-1.996-0.215-2.84l12.692-14.773
								c0.725-0.844,1.996-0.94,2.84-0.215l34.417,29.568c0.844,0.725,0.94,1.996,0.215,2.84l-12.692,14.773
								C434.108,180.871,432.836,180.967,431.993,180.243z"
                />
                <path
                  style="fill: #39354d"
                  d="M351.556,344.016l-18.112,6.865c-1.068,0.405-2.261-0.133-2.666-1.2l-11.563-30.51
								c-0.405-1.067,0.133-2.261,1.2-2.665l18.112-6.865c1.068-0.405,2.261,0.133,2.666,1.2l11.563,30.51
								C353.161,342.418,352.624,343.611,351.556,344.016z"
                />
                <path
                  style="fill: #39354d"
                  d="M345.477,173.968l-16.896,42.111c-0.414,1.032-1.587,1.533-2.619,1.119l-18.076-7.252
								c-1.032-0.414-1.533-1.587-1.119-2.619l16.896-42.111c0.414-1.032,1.587-1.533,2.619-1.119l18.076,7.252
								C345.39,171.764,345.891,172.936,345.477,173.968z"
                />
                <path
                  style="fill: #39354d"
                  d="M348.815,155.234l-19.423-1.447c-1.109-0.083-1.941-1.049-1.859-2.158l1.685-22.619
								c0.083-1.109,1.049-1.941,2.158-1.859l19.423,1.447c1.109,0.083,1.941,1.049,1.858,2.158l-1.685,22.619
								C350.891,154.485,349.924,155.317,348.815,155.234z"
                />
                <path
                  style="fill: #39354d"
                  d="M292.967,223.634l5.713-7.359c0.682-0.878,1.947-1.038,2.826-0.356l15.384,11.944
								c0.879,0.682,1.038,1.947,0.356,2.826l-5.713,7.359c-0.682,0.878-1.947,1.038-2.826,0.356l-15.384-11.944
								C292.444,225.778,292.285,224.513,292.967,223.634z"
                />
                <path
                  style="fill: #39354d"
                  d="M407.774,245.493l-6.818,6.348c-0.814,0.758-2.088,0.712-2.846-0.102l-13.272-14.254
								c-0.758-0.814-0.712-2.088,0.102-2.846l6.818-6.348c0.814-0.758,2.088-0.712,2.846,0.102l13.272,14.254
								C408.634,243.461,408.588,244.735,407.774,245.493z"
                />
                <path
                  style="fill: #39354d"
                  d="M373.826,326.686l18.212-6.902c1.04-0.394,2.203,0.129,2.597,1.169l3.302,8.712
								c0.394,1.04-0.13,2.203-1.169,2.597l-18.212,6.902c-1.04,0.394-2.202-0.129-2.597-1.169l-3.302-8.711
								C372.262,328.242,372.786,327.08,373.826,326.686z"
                />
                <path
                  style="fill: #39354d"
                  d="M398.766,221.735l6.818-6.348c0.814-0.758,2.088-0.712,2.846,0.102l13.272,14.254
								c0.758,0.814,0.712,2.088-0.102,2.846l-6.818,6.348c-0.814,0.758-2.088,0.712-2.846-0.102l-13.272-14.254
								C397.906,223.767,397.952,222.493,398.766,221.735z"
                />
                <path
                  style="fill: #39354d"
                  d="M272.421,343.599l19.468-0.565c1.112-0.032,2.039,0.843,2.071,1.954l0.27,9.312
								c0.032,1.112-0.843,2.039-1.954,2.071l-19.468,0.565c-1.112,0.032-2.039-0.843-2.071-1.955l-0.27-9.312
								C270.434,344.559,271.309,343.631,272.421,343.599z"
                />
                <path
                  style="fill: #39354d"
                  d="M271.85,324.695l19.468-0.565c1.112-0.032,2.039,0.843,2.071,1.955l0.27,9.312
								c0.032,1.112-0.843,2.039-1.954,2.071l-19.468,0.565c-1.112,0.032-2.039-0.843-2.071-1.955l-0.27-9.312
								C269.863,325.655,270.738,324.728,271.85,324.695z"
                />
                <path
                  style="fill: #39354d"
                  d="M413.304,268.895l19.458-13.949c0.904-0.648,2.162-0.441,2.81,0.463l11.348,15.829
								c0.648,0.904,0.441,2.162-0.463,2.81l-19.457,13.949c-0.904,0.648-2.162,0.441-2.81-0.463l-11.348-15.829
								C412.193,270.801,412.4,269.543,413.304,268.895z"
                />
                <path
                  style="fill: #39354d"
                  d="M313.062,259.68l18.767-5.21c1.072-0.298,2.182,0.33,2.479,1.402l6.404,23.069
								c0.297,1.072-0.33,2.182-1.402,2.479l-18.767,5.21c-1.072,0.298-2.181-0.33-2.479-1.402l-6.404-23.069
								C311.363,261.087,311.99,259.977,313.062,259.68z"
                />
              </g>
              <g>
                <path
                  style="fill: #e64560"
                  d="M423.562,124.218c-7.297,0-13.234,5.937-13.234,13.234c0,5.318,6.497,13.538,11.947,19.498
								l0.065,0.071c0.081,0.088,0.141,0.154,0.177,0.194c0.248,0.325,0.633,0.517,1.045,0.517c0.413,0,0.799-0.193,1.046-0.519
								c0.035-0.039,0.092-0.101,0.169-0.185l0.073-0.08c5.449-5.96,11.945-14.181,11.945-19.497
								C436.795,130.155,430.859,124.218,423.562,124.218z M423.562,143.978c-3.731,0-6.756-3.025-6.756-6.756
								c0-3.731,3.025-6.756,6.756-6.756c3.731,0,6.756,3.025,6.756,6.756C430.317,140.953,427.293,143.978,423.562,143.978z"
                />
                <path
                  style="fill: #f2f2f2"
                  d="M423.562,130.466c-3.731,0-6.756,3.025-6.756,6.756c0,3.731,3.025,6.756,6.756,6.756
								c3.731,0,6.756-3.025,6.756-6.756C430.317,133.491,427.293,130.466,423.562,130.466z M423.637,141.011
								c-2.087,0-3.784-1.698-3.784-3.784c0-2.087,1.698-3.784,3.784-3.784c2.087,0,3.784,1.698,3.784,3.784
								C427.421,139.314,425.723,141.011,423.637,141.011z"
                />
              </g>
              <g>
                <path
                  style="fill: #e64560"
                  d="M335.221,299.01c-7.297,0-13.234,5.937-13.234,13.234c0,5.318,6.497,13.538,11.947,19.498
								l0.065,0.071c0.081,0.088,0.141,0.154,0.177,0.194c0.248,0.325,0.633,0.517,1.045,0.517c0.413,0,0.799-0.193,1.046-0.519
								c0.035-0.039,0.092-0.101,0.169-0.185l0.073-0.08c5.449-5.96,11.945-14.18,11.945-19.497
								C348.454,304.947,342.518,299.01,335.221,299.01z M335.22,318.77c-3.731,0-6.756-3.025-6.756-6.756
								c0-3.731,3.024-6.756,6.756-6.756s6.756,3.025,6.756,6.756C341.976,315.745,338.952,318.77,335.22,318.77z"
                />
                <path
                  style="fill: #f2f2f2"
                  d="M335.22,305.259c-3.731,0-6.756,3.025-6.756,6.756c0,3.731,3.024,6.756,6.756,6.756
								s6.756-3.025,6.756-6.756C341.976,308.283,338.952,305.259,335.22,305.259z M335.295,315.803
								c-2.087,0-3.784-1.698-3.784-3.784s1.698-3.784,3.784-3.784c2.087,0,3.784,1.698,3.784,3.784
								S337.382,315.803,335.295,315.803z"
                />
              </g>
              <g>
                <path
                  style="fill: #e64560"
                  d="M427.285,237.652c-7.297,0-13.234,5.937-13.234,13.234c0,5.318,6.497,13.538,11.947,19.498
								l0.065,0.071c0.081,0.088,0.141,0.154,0.177,0.194c0.248,0.325,0.633,0.517,1.045,0.517c0.413,0,0.799-0.193,1.046-0.519
								c0.035-0.039,0.091-0.101,0.168-0.185l0.073-0.08c5.449-5.96,11.945-14.18,11.945-19.497
								C440.518,243.589,434.582,237.652,427.285,237.652z M427.285,257.412c-3.731,0-6.756-3.025-6.756-6.756
								c0-3.731,3.025-6.756,6.756-6.756c3.731,0,6.756,3.025,6.756,6.756C434.04,254.387,431.016,257.412,427.285,257.412z"
                />
                <path
                  style="fill: #f2f2f2"
                  d="M427.285,243.9c-3.731,0-6.756,3.025-6.756,6.756c0,3.731,3.025,6.756,6.756,6.756
								c3.731,0,6.756-3.025,6.756-6.756C434.04,246.925,431.016,243.9,427.285,243.9z M427.359,254.445
								c-2.087,0-3.784-1.698-3.784-3.784c0-2.087,1.698-3.784,3.784-3.784c2.087,0,3.784,1.698,3.784,3.784
								C431.144,252.747,429.446,254.445,427.359,254.445z"
                />
              </g>
            </g>
          </g>
          <path
            style="fill: #f2f2f2"
            d="M357.272,410.347c-7.617,0-13.814,6.197-13.814,13.814c0,7.617,6.197,13.814,13.814,13.814
					s13.814-6.197,13.814-13.814C371.086,416.543,364.889,410.347,357.272,410.347z M367.737,424.161
					c0,5.77-4.695,10.465-10.465,10.465s-10.465-4.695-10.465-10.465c0-5.771,4.695-10.465,10.465-10.465
					S367.737,418.39,367.737,424.161z"
          />
        </g>
        <g>
          <g>
            <rect
              x="226.108"
              y="240.967"
              transform="matrix(0.7071 -0.7071 0.7071 0.7071 -99.5354 247.3391)"
              style="fill: #00bcc0"
              width="45.367"
              height="5.701"
            />
          </g>
          <g>
            <path
              style="fill: #39354d"
              d="M176.724,315.885c2.544,2.544,6.67,2.544,9.214,0l51.421-51.421
						c2.544-2.544,2.545-6.669,0-9.214c-2.544-2.544-6.67-2.544-9.214,0l-51.421,51.421
						C174.18,309.216,174.179,313.341,176.724,315.885z"
            />
          </g>
          <g>
            <path
              style="fill: #39354d"
              d="M351.216,140.821c-24.772-24.772-65.074-24.772-89.837,0
						c-24.189,24.189-24.762,63.19-1.693,88.071c0.546,0.601,1.111,1.184,1.693,1.766c0.774,0.774,1.557,1.52,2.358,2.249h0.009
						c24.899,22.487,63.472,21.74,87.47-2.249C375.978,205.887,375.978,165.593,351.216,140.821z M345.453,224.896
						c-21.594,21.595-56.726,21.595-78.321,0c-21.585-21.585-21.585-56.726,0-78.312c21.594-21.594,56.726-21.594,78.321,0
						C367.047,168.169,367.047,203.31,345.453,224.896z"
            />
            <path
              style="opacity: 0.5; fill: #ffffff"
              d="M345.453,224.896c-21.594,21.595-56.726,21.595-78.321,0
						c-21.585-21.585-21.585-56.726,0-78.312c21.594-21.594,56.726-21.594,78.321,0C367.047,168.169,367.047,203.31,345.453,224.896
						z"
            />
          </g>
        </g>
        <g>
          <g>
            <circle
              style="fill: #f2f2f2"
              cx="306.991"
              cy="186.966"
              r="41.942"
            />
          </g>
          <g>
            <path
              style="fill: #e64560"
              d="M273.026,187.136l13.38-12.079v-11.744c0-2.675,2.312-4.851,5.153-4.851
						c1.338,0,2.605,0.479,3.568,1.349c1.007,0.909,1.585,2.186,1.585,3.501v2.441l6.554-5.917c1.003-0.905,2.324-1.383,3.724-1.337
						c1.41-0.047,2.721,0.432,3.725,1.338l30.24,27.3c1.007,0.909,1.585,2.185,1.585,3.501c0,1.315-0.578,2.592-1.585,3.501
						c-0.964,0.87-2.232,1.35-3.569,1.35c-1.337,0-2.604-0.479-3.569-1.35l-2.189-1.975v18.811c0,2.479-2.136,4.496-4.761,4.496
						h-12.629v-17.884c0-1.655-0.727-3.223-2.047-4.416c-1.378-1.244-3.224-1.929-5.199-1.929c0,0-0.001,0-0.001,0
						c-3.996,0-7.248,2.846-7.248,6.346v17.883h-12.941c-2.625,0-4.761-2.017-4.761-4.496v-18.531l-1.878,1.696
						c-0.964,0.87-2.231,1.349-3.568,1.349c-1.337,0-2.605-0.48-3.569-1.35c-1.007-0.909-1.585-2.186-1.585-3.501
						C271.441,189.322,272.019,188.045,273.026,187.136z"
            />
          </g>
        </g>
      </g>
    </g>
  </g>
</svg>
